<?xml version="1.0" encoding="utf-8"?>
<!-- Generator: Adobe Illustrator 27.5.0, SVG Export Plug-In . SVG Version: 6.00 Build 0)  -->
<svg version="1.1" xmlns="http://www.w3.org/2000/svg" xmlns:xlink="http://www.w3.org/1999/xlink" x="0px" y="0px"
	 viewBox="0 0 750 500" style="enable-background:new 0 0 750 500;" xml:space="preserve">
<g id="Background_Complete">
	<g>
		<g>
			<g>
				<g>
					<g>
						<g>
							<g>
								<g>
									<g>
										<g>
											<g>
												<path style="fill:#F5F5F5;" d="M435.789,204.305c-35.417-0.331-67.466-0.631-90.698-0.848
													c-11.589-0.055-20.971-0.099-27.486-0.129c-3.228,0.008-5.739,0.013-7.473,0.017c-0.837,0.011-1.482,0.02-1.944,0.025
													c-0.438,0.01-0.662,0.022-0.662,0.035s0.224,0.027,0.662,0.042c0.462,0.011,1.107,0.026,1.943,0.045
													c1.734,0.021,4.245,0.052,7.473,0.092c6.515,0.034,15.897,0.084,27.486,0.145c23.232,0.014,55.284,0.034,90.702,0.056
													c35.4-0.004,67.457,0.042,90.664,0.208c11.604,0.081,20.994,0.188,27.484,0.31c3.245,0.061,5.765,0.125,7.473,0.189
													c1.708,0.064,2.605,0.13,2.605,0.192c0,0.062-0.898,0.118-2.607,0.166c-1.709,0.047-4.229,0.086-7.474,0.114
													c-6.491,0.057-15.882,0.071-27.486,0.036C503.243,204.936,471.187,204.662,435.789,204.305z"/>
											</g>
										</g>
									</g>
								</g>
							</g>
						</g>
					</g>
				</g>
			</g>
		</g>
		<g>
			<g>
				<g>
					<g>
						<g>
							<g>
								<g>
									<g>
										<g>
											<g>
												<path style="fill:#F5F5F5;" d="M435.083,212.072c-34.933-5.679-66.545-10.818-89.459-14.543
													c-11.44-1.803-20.701-3.263-27.132-4.277c-3.189-0.479-5.672-0.852-7.385-1.109c-0.829-0.115-1.467-0.203-1.924-0.267
													c-0.435-0.056-0.658-0.077-0.66-0.064c-0.002,0.013,0.217,0.062,0.647,0.143c0.455,0.081,1.089,0.193,1.912,0.34
													c1.71,0.283,4.185,0.694,7.367,1.221c6.43,1.019,15.69,2.485,27.128,4.296c22.948,3.521,54.608,8.379,89.593,13.747
													c34.971,5.339,66.632,10.222,89.53,13.892c11.449,1.832,20.709,3.357,27.1,4.459c3.196,0.551,5.674,0.995,7.351,1.318
													c1.677,0.323,2.553,0.523,2.542,0.586c-0.01,0.062-0.906-0.017-2.602-0.227c-1.696-0.21-4.192-0.552-7.402-1.013
													c-6.421-0.923-15.701-2.327-27.158-4.113C501.616,222.89,469.994,217.775,435.083,212.072z"/>
											</g>
										</g>
									</g>
								</g>
							</g>
						</g>
					</g>
				</g>
			</g>
		</g>
		<g>
			<g>
				<g>
					<g>
						<g>
							<g>
								<g>
									<g>
										<g>
											<g>
												<path style="fill:#F5F5F5;" d="M433.134,219.636c-33.576-10.956-63.96-20.871-85.985-28.058
													c-11.005-3.531-19.914-6.39-26.1-8.376c-3.072-0.961-5.463-1.709-7.114-2.225c-0.8-0.24-1.415-0.425-1.857-0.557
													c-0.42-0.121-0.637-0.177-0.642-0.164c-0.005,0.013,0.204,0.095,0.615,0.241c0.436,0.149,1.044,0.358,1.833,0.628
													c1.642,0.542,4.02,1.326,7.077,2.335c6.185,1.99,15.092,4.855,26.094,8.395c22.092,6.989,52.569,16.63,86.248,27.284
													c33.67,10.623,64.146,20.29,86.163,27.418c11.01,3.562,19.906,6.486,26.039,8.553c3.066,1.033,5.442,1.852,7.046,2.428
													c1.604,0.576,2.436,0.909,2.415,0.969c-0.021,0.06-0.893-0.154-2.534-0.621c-1.641-0.467-4.05-1.186-7.146-2.132
													c-6.192-1.893-15.128-4.7-26.153-8.217C497.082,240.506,466.684,230.613,433.134,219.636z"/>
											</g>
										</g>
									</g>
								</g>
							</g>
						</g>
					</g>
				</g>
			</g>
		</g>
		<g>
			<g>
				<g>
					<g>
						<g>
							<g>
								<g>
									<g>
										<g>
											<g>
												<path style="fill:#F5F5F5;" d="M429.986,226.8c-31.385-15.952-59.787-30.388-80.374-40.852
													c-10.296-5.171-18.631-9.357-24.419-12.263c-2.878-1.42-5.118-2.524-6.664-3.286c-0.751-0.36-1.329-0.637-1.743-0.835
													c-0.395-0.184-0.601-0.272-0.607-0.261c-0.006,0.012,0.187,0.124,0.569,0.331c0.406,0.214,0.973,0.512,1.709,0.9
													c1.534,0.786,3.756,1.924,6.611,3.386c5.786,2.911,14.117,7.102,24.41,12.281c20.684,10.281,49.22,24.466,80.753,40.14
													c31.53,15.643,60.059,29.852,80.649,40.258c10.296,5.201,18.609,9.448,24.331,12.426
													c2.861,1.489,5.075,2.66,6.566,3.473c1.491,0.813,2.259,1.268,2.23,1.324c-0.03,0.056-0.856-0.29-2.4-1.003
													c-1.544-0.713-3.807-1.792-6.711-3.201c-5.808-2.818-14.178-6.957-24.496-12.117
													C489.762,257.184,461.343,242.768,429.986,226.8z"/>
											</g>
										</g>
									</g>
								</g>
							</g>
						</g>
					</g>
				</g>
			</g>
		</g>
		<g>
			<g>
				<g>
					<g>
						<g>
							<g>
								<g>
									<g>
										<g>
											<g>
												<path style="fill:#F5F5F5;" d="M425.72,233.397c-28.434-20.524-54.165-39.097-72.816-52.56
													c-9.338-6.672-16.897-12.072-22.146-15.823c-2.615-1.839-4.649-3.271-6.054-4.259c-0.683-0.469-1.21-0.831-1.587-1.09
													c-0.36-0.242-0.549-0.36-0.557-0.35c-0.008,0.011,0.164,0.151,0.509,0.413c0.367,0.273,0.879,0.654,1.543,1.149
													c1.389,1.009,3.4,2.471,5.985,4.349c5.246,3.754,12.802,9.16,22.135,15.838c18.777,13.297,44.68,31.642,73.305,51.914
													c28.626,20.24,54.52,38.609,73.182,52.015c9.332,6.702,16.86,12.159,22.033,15.97c2.587,1.905,4.585,3.398,5.926,4.428
													c1.342,1.03,2.028,1.596,1.989,1.646c-0.038,0.051-0.798-0.417-2.209-1.355c-1.411-0.938-3.472-2.348-6.114-4.181
													c-5.283-3.665-12.885-9.025-22.246-15.689C479.874,272.489,454.123,253.932,425.72,233.397z"/>
											</g>
										</g>
									</g>
								</g>
							</g>
						</g>
					</g>
				</g>
			</g>
		</g>
		<g>
			<g>
				<g>
					<g>
						<g>
							<g>
								<g>
									<g>
										<g>
											<g>
												<path style="fill:#F5F5F5;" d="M420.449,239.266c-24.803-24.572-47.249-46.809-63.519-62.927
													c-8.156-8.002-14.759-14.48-19.344-18.978c-2.288-2.212-4.069-3.934-5.298-5.122c-0.6-0.567-1.063-1.004-1.394-1.317
													c-0.317-0.293-0.485-0.439-0.495-0.43c-0.01,0.009,0.138,0.174,0.437,0.485c0.319,0.325,0.763,0.779,1.341,1.368
													c1.211,1.207,2.964,2.955,5.217,5.201c4.582,4.501,11.18,10.983,19.331,18.991
													c16.42,15.974,39.073,38.011,64.105,62.364c25.039,24.321,47.677,46.381,63.967,62.445
													c8.147,8.031,14.709,14.56,19.21,19.106c2.25,2.273,3.985,4.05,5.146,5.27c1.161,1.22,1.748,1.883,1.702,1.927
													c-0.046,0.044-0.722-0.533-1.965-1.673c-1.243-1.14-3.054-2.844-5.37-5.054c-4.632-4.419-11.284-10.863-19.464-18.861
													C467.689,286.068,445.22,263.845,420.449,239.266z"/>
											</g>
										</g>
									</g>
								</g>
							</g>
						</g>
					</g>
				</g>
			</g>
		</g>
		<g>
			<g>
				<g>
					<g>
						<g>
							<g>
								<g>
									<g>
										<g>
											<g>
												<path style="fill:#F5F5F5;" d="M414.305,244.267c-20.569-28.023-39.183-53.382-52.675-71.764
													c-6.777-9.137-12.262-16.535-16.072-21.671c-1.906-2.531-3.39-4.501-4.414-5.861c-0.502-0.651-0.889-1.152-1.166-1.512
													c-0.266-0.338-0.409-0.507-0.42-0.499c-0.011,0.008,0.109,0.192,0.354,0.545c0.263,0.369,0.629,0.885,1.105,1.554
													c1.003,1.375,2.455,3.367,4.321,5.926c3.806,5.139,9.286,12.54,16.057,21.682
													c13.663,18.261,32.514,43.455,53.344,71.295c20.842,27.81,39.675,53.023,53.196,71.355
													c6.762,9.165,12.2,16.606,15.918,21.777c1.859,2.586,3.289,4.603,4.24,5.984c0.951,1.381,1.424,2.124,1.372,2.161
													c-0.052,0.037-0.628-0.635-1.674-1.95c-1.046-1.314-2.562-3.271-4.496-5.804c-3.868-5.066-9.408-12.436-16.209-21.574
													C453.479,297.641,434.841,272.291,414.305,244.267z"/>
											</g>
										</g>
									</g>
								</g>
							</g>
						</g>
					</g>
				</g>
			</g>
		</g>
		<g>
			<g>
				<g>
					<g>
						<g>
							<g>
								<g>
									<g>
										<g>
											<g>
												<path style="fill:#F5F5F5;" d="M407.433,248.275c-15.807-30.804-30.111-58.68-40.48-78.886
													c-5.224-10.055-9.452-18.195-12.389-23.847c-1.476-2.79-2.625-4.96-3.418-6.459c-0.391-0.719-0.693-1.273-0.909-1.67
													c-0.209-0.374-0.323-0.563-0.335-0.557c-0.012,0.006,0.076,0.207,0.262,0.593c0.2,0.405,0.479,0.969,0.841,1.703
													c0.769,1.511,1.883,3.698,3.314,6.51c2.932,5.654,7.155,13.797,12.371,23.855
													c10.558,20.113,25.125,47.861,41.221,78.523c16.113,30.635,30.659,58.399,41.064,78.56
													c5.205,10.079,9.378,18.256,12.218,23.929c1.42,2.836,2.507,5.046,3.224,6.555c0.717,1.508,1.065,2.315,1.007,2.343
													c-0.058,0.029-0.519-0.722-1.341-2.18c-0.822-1.457-2.005-3.62-3.508-6.416c-3.006-5.591-7.292-13.713-12.54-23.771
													C437.537,306.946,423.207,279.076,407.433,248.275z"/>
											</g>
										</g>
									</g>
								</g>
							</g>
						</g>
					</g>
				</g>
			</g>
		</g>
		<g>
			<g>
				<g>
					<g>
						<g>
							<g>
								<g>
									<g>
										<g>
											<g>
												<path style="fill:#F5F5F5;" d="M399.999,251.186c-10.623-32.838-20.236-62.554-27.204-84.094
													c-3.531-10.728-6.389-19.413-8.374-25.444c-1.007-2.98-1.79-5.3-2.33-6.901c-0.271-0.77-0.479-1.363-0.628-1.788
													c-0.146-0.401-0.227-0.605-0.241-0.601c-0.013,0.004,0.042,0.216,0.162,0.625c0.132,0.431,0.316,1.031,0.555,1.811
													c0.515,1.609,1.26,3.94,2.218,6.936c1.98,6.032,4.832,14.719,8.354,25.45c7.171,21.477,17.065,51.106,27.998,83.848
													c10.954,32.717,20.825,62.359,27.837,83.86c3.508,10.75,6.306,19.463,8.192,25.499c0.943,3.018,1.659,5.367,2.122,6.966
													c0.464,1.599,0.677,2.449,0.614,2.468c-0.062,0.019-0.395-0.793-0.971-2.357c-0.576-1.565-1.394-3.882-2.426-6.872
													c-2.064-5.981-4.982-14.657-8.536-25.393C420.228,313.73,410.589,284.016,399.999,251.186z"/>
											</g>
										</g>
									</g>
								</g>
							</g>
						</g>
					</g>
				</g>
			</g>
		</g>
		<g>
			<g>
				<g>
					<g>
						<g>
							<g>
								<g>
									<g>
										<g>
											<g>
												<path style="fill:#F5F5F5;" d="M392.183,252.924c-5.175-34.053-9.858-64.87-13.253-87.207
													c-1.75-11.135-3.166-20.148-4.15-26.407c-0.511-3.097-0.909-5.508-1.183-7.172c-0.142-0.802-0.252-1.419-0.33-1.861
													c-0.079-0.419-0.126-0.632-0.14-0.63c-0.013,0.002,0.007,0.22,0.06,0.642c0.06,0.445,0.145,1.066,0.255,1.873
													c0.248,1.668,0.607,4.084,1.068,7.189c0.979,6.26,2.389,15.275,4.13,26.41c3.604,22.306,8.577,53.079,14.072,87.085
													c5.52,33.984,10.468,64.767,13.912,87.072c1.724,11.152,3.076,20.185,3.962,26.434c0.443,3.125,0.769,5.554,0.969,7.204
													c0.2,1.65,0.272,2.522,0.208,2.531c-0.064,0.009-0.262-0.843-0.577-2.477c-0.315-1.633-0.748-4.047-1.282-7.158
													c-1.07-6.222-2.547-15.236-4.318-26.382C402.037,317.782,397.328,286.964,392.183,252.924z"/>
											</g>
										</g>
									</g>
								</g>
							</g>
						</g>
					</g>
				</g>
			</g>
		</g>
		<g>
			<g>
				<g>
					<g>
						<g>
							<g>
								<g>
									<g>
										<g>
											<g>
												<path style="fill:#F5F5F5;" d="M384.183,253.452c0.319-34.421,0.608-65.57,0.816-88.149
													c0.049-11.263,0.089-20.382,0.116-26.714c-0.01-3.137-0.017-5.578-0.022-7.263c-0.012-0.814-0.021-1.44-0.028-1.889
													c-0.011-0.426-0.023-0.644-0.036-0.644c-0.013,0-0.028,0.218-0.043,0.643c-0.011,0.449-0.026,1.075-0.045,1.889
													c-0.021,1.685-0.051,4.126-0.09,7.262c-0.031,6.332-0.076,15.45-0.132,26.714c-0.001,22.579-0.001,53.73-0.002,88.152
													c0.026,34.405-0.002,65.562-0.159,88.116c-0.076,11.277-0.181,20.404-0.302,26.712c-0.06,3.154-0.125,5.603-0.19,7.263
													c-0.065,1.66-0.132,2.532-0.195,2.532c-0.064,0-0.122-0.873-0.172-2.533c-0.05-1.661-0.091-4.11-0.122-7.264
													c-0.062-6.308-0.082-15.436-0.054-26.713C383.576,319.011,383.838,287.856,384.183,253.452z"/>
											</g>
										</g>
									</g>
								</g>
							</g>
						</g>
					</g>
				</g>
			</g>
		</g>
		<g>
			<g>
				<g>
					<g>
						<g>
							<g>
								<g>
									<g>
										<g>
											<g>
												<path style="fill:#F5F5F5;" d="M376.191,252.771c5.821-33.954,11.089-64.681,14.907-86.954
													c1.848-11.12,3.344-20.121,4.383-26.372c0.491-3.1,0.873-5.513,1.137-7.179c0.118-0.805,0.208-1.426,0.273-1.87
													c0.057-0.422,0.079-0.639,0.065-0.642c-0.014-0.002-0.064,0.211-0.147,0.629c-0.083,0.442-0.198,1.058-0.348,1.859
													c-0.29,1.661-0.711,4.068-1.252,7.161c-1.043,6.25-2.546,15.25-4.403,26.369c-3.608,22.305-8.587,53.078-14.088,87.083
													c-5.471,33.992-10.475,64.766-14.237,87.023c-1.878,11.129-3.442,20.129-4.571,26.341
													c-0.565,3.106-1.02,5.516-1.351,7.146c-0.331,1.63-0.537,2.481-0.601,2.471c-0.064-0.01,0.017-0.881,0.232-2.529
													c0.216-1.648,0.565-4.074,1.038-7.195c0.946-6.241,2.384-15.261,4.215-26.397
													C365.102,317.441,370.345,286.704,376.191,252.771z"/>
											</g>
										</g>
									</g>
								</g>
							</g>
						</g>
					</g>
				</g>
			</g>
		</g>
		<g>
			<g>
				<g>
					<g>
						<g>
							<g>
								<g>
									<g>
										<g>
											<g>
												<path style="fill:#F5F5F5;" d="M368.407,250.881c11.252-32.639,21.434-62.176,28.815-83.586
													c3.627-10.698,6.563-19.358,8.602-25.372c0.987-2.986,1.755-5.31,2.285-6.915c0.247-0.777,0.436-1.376,0.572-1.806
													c0.125-0.408,0.181-0.619,0.168-0.624c-0.014-0.004-0.097,0.198-0.247,0.598c-0.154,0.424-0.368,1.015-0.646,1.782
													c-0.556,1.597-1.362,3.908-2.397,6.879c-2.044,6.013-4.987,14.671-8.622,25.366
													c-7.177,21.475-17.078,51.102-28.018,83.841c-10.909,32.731-20.836,62.356-28.157,83.759
													c-3.658,10.703-6.661,19.351-8.784,25.313c-1.061,2.981-1.902,5.29-2.493,6.849c-0.592,1.559-0.933,2.368-0.996,2.348
													c-0.062-0.02,0.158-0.867,0.637-2.463c0.479-1.595,1.217-3.937,2.189-6.947c1.944-6.019,4.826-14.706,8.439-25.423
													C346.974,313.046,357.134,283.496,368.407,250.881z"/>
											</g>
										</g>
									</g>
								</g>
							</g>
						</g>
					</g>
				</g>
			</g>
		</g>
		<g>
			<g>
				<g>
					<g>
						<g>
							<g>
								<g>
									<g>
										<g>
											<g>
												<path style="fill:#F5F5F5;" d="M361.034,247.827c16.394-30.513,31.229-58.126,41.982-78.141
													c5.314-10.01,9.616-18.114,12.602-23.74c1.459-2.798,2.594-4.976,3.377-6.479c0.37-0.73,0.655-1.292,0.858-1.695
													c0.189-0.384,0.28-0.584,0.268-0.59c-0.012-0.006-0.128,0.181-0.34,0.554c-0.22,0.395-0.526,0.946-0.925,1.662
													c-0.808,1.491-1.977,3.651-3.48,6.427c-2.991,5.625-7.299,13.725-12.62,23.731
													c-10.566,20.109-25.143,47.852-41.25,78.509c-16.075,30.653-30.677,58.39-41.371,78.407
													c-5.345,10.01-9.71,18.092-12.77,23.655c-1.53,2.782-2.733,4.934-3.569,6.384c-0.835,1.449-1.303,2.197-1.36,2.168
													c-0.058-0.029,0.298-0.832,1.03-2.333c0.733-1.501,1.841-3.701,3.289-6.524c2.896-5.646,7.149-13.784,12.452-23.815
													C329.809,305.941,344.624,278.312,361.034,247.827z"/>
											</g>
										</g>
									</g>
								</g>
							</g>
						</g>
					</g>
				</g>
			</g>
		</g>
		<g>
			<g>
				<g>
					<g>
						<g>
							<g>
								<g>
									<g>
										<g>
											<g>
												<path style="fill:#F5F5F5;" d="M354.243,243.684c21.1-27.647,40.194-52.667,54.035-70.802
													c6.858-9.079,12.411-16.43,16.266-21.534c1.891-2.542,3.362-4.52,4.378-5.886c0.482-0.665,0.854-1.177,1.12-1.544
													c0.249-0.351,0.37-0.534,0.359-0.542c-0.011-0.008-0.155,0.16-0.425,0.495c-0.281,0.357-0.672,0.854-1.181,1.501
													c-1.038,1.35-2.54,3.306-4.471,5.82c-3.859,5.101-9.417,12.448-16.282,21.523
													c-13.67,18.257-32.529,43.444-53.369,71.277c-20.807,27.835-39.691,53.012-53.474,71.158
													c-6.89,9.075-12.5,16.394-16.418,21.424c-1.959,2.515-3.494,4.458-4.552,5.763c-1.059,1.305-1.641,1.971-1.693,1.934
													c-0.052-0.037,0.428-0.776,1.393-2.148c0.964-1.372,2.414-3.376,4.297-5.944c3.768-5.137,9.278-12.529,16.129-21.63
													C314.055,296.341,333.132,271.302,354.243,243.684z"/>
											</g>
										</g>
									</g>
								</g>
							</g>
						</g>
					</g>
				</g>
			</g>
		</g>
		<g>
			<g>
				<g>
					<g>
						<g>
							<g>
								<g>
									<g>
										<g>
											<g>
												<path style="fill:#F5F5F5;" d="M348.201,238.566c25.268-24.122,48.133-45.95,64.707-61.773
													c8.228-7.932,14.889-14.353,19.514-18.812c2.275-2.226,4.045-3.957,5.267-5.153c0.583-0.584,1.032-1.033,1.354-1.355
													c0.302-0.309,0.452-0.472,0.442-0.481c-0.01-0.009-0.179,0.134-0.499,0.425c-0.334,0.31-0.801,0.742-1.406,1.304
													c-1.241,1.177-3.038,2.882-5.348,5.074c-4.629,4.456-11.294,10.873-19.528,18.8
													c-16.426,15.968-39.086,37.998-64.127,62.341c-25.009,24.35-47.693,46.366-64.212,62.208
													c-8.258,7.923-14.972,14.305-19.647,18.681c-2.337,2.189-4.164,3.876-5.419,5.005c-1.254,1.129-1.936,1.7-1.981,1.655
													c-0.046-0.045,0.548-0.702,1.72-1.911c1.172-1.209,2.924-2.97,5.197-5.222c4.544-4.505,11.17-10.973,19.394-18.929
													C300.076,284.507,322.927,262.656,348.201,238.566z"/>
											</g>
										</g>
									</g>
								</g>
							</g>
						</g>
					</g>
				</g>
			</g>
		</g>
		<g>
			<g>
				<g>
					<g>
						<g>
							<g>
								<g>
									<g>
										<g>
											<g>
												<path style="fill:#F5F5F5;" d="M343.052,232.597c28.821-20.008,54.902-38.114,73.806-51.239
													c9.397-6.592,17.005-11.928,22.288-15.634c2.603-1.854,4.629-3.297,6.027-4.294c0.669-0.488,1.185-0.865,1.554-1.134
													c0.347-0.259,0.521-0.397,0.513-0.408c-0.008-0.011-0.198,0.106-0.561,0.344c-0.38,0.256-0.91,0.612-1.598,1.075
													c-1.414,0.975-3.463,2.388-6.095,4.203c-5.285,3.702-12.897,9.033-22.299,15.618
													c-18.781,13.291-44.692,31.627-73.323,51.89c-28.601,20.274-54.532,38.593-73.385,51.745
													c-9.425,6.578-17.079,11.867-22.397,15.484c-2.659,1.808-4.734,3.199-6.154,4.124c-1.42,0.925-2.185,1.386-2.223,1.335
													c-0.038-0.051,0.653-0.611,2.005-1.628c1.352-1.017,3.364-2.492,5.969-4.374c5.21-3.763,12.79-9.151,22.187-15.767
													C288.159,270.703,314.23,252.573,343.052,232.597z"/>
											</g>
										</g>
									</g>
								</g>
							</g>
						</g>
					</g>
				</g>
			</g>
		</g>
		<g>
			<g>
				<g>
					<g>
						<g>
							<g>
								<g>
									<g>
										<g>
											<g>
												<path style="fill:#F5F5F5;" d="M338.923,225.921c31.685-15.382,60.358-29.302,81.142-39.392
													c10.342-5.083,18.715-9.198,24.529-12.055c2.869-1.436,5.102-2.554,6.643-3.326c0.74-0.381,1.31-0.674,1.718-0.885
													c0.385-0.203,0.579-0.314,0.572-0.326c-0.006-0.012-0.213,0.074-0.61,0.255c-0.416,0.195-0.997,0.466-1.752,0.819
													c-1.554,0.748-3.804,1.832-6.696,3.225c-5.816,2.853-14.191,6.962-24.537,12.038
													c-20.688,10.274-49.229,24.448-80.768,40.112c-31.511,15.679-60.068,29.834-80.806,39.959
													c-10.368,5.065-18.778,9.126-24.613,11.89c-2.917,1.382-5.191,2.44-6.742,3.138c-1.551,0.698-2.381,1.036-2.41,0.98
													c-0.029-0.056,0.743-0.505,2.242-1.304c1.499-0.8,3.724-1.951,6.599-3.413c5.751-2.925,14.105-7.096,24.451-12.202
													C278.575,255.216,307.242,241.271,338.923,225.921z"/>
											</g>
										</g>
									</g>
								</g>
							</g>
						</g>
					</g>
				</g>
			</g>
		</g>
		<g>
			<g>
				<g>
					<g>
						<g>
							<g>
								<g>
									<g>
										<g>
											<g>
												<path style="fill:#F5F5F5;" d="M335.924,218.697c33.781-10.345,64.35-19.707,86.509-26.492
													c11.036-3.438,19.97-6.222,26.174-8.155c3.066-0.98,5.452-1.743,7.099-2.269c0.792-0.263,1.402-0.466,1.839-0.611
													c0.413-0.142,0.622-0.222,0.618-0.235c-0.004-0.013-0.222,0.04-0.643,0.158c-0.442,0.129-1.06,0.308-1.862,0.54
													c-1.656,0.501-4.054,1.227-7.135,2.16c-6.206,1.928-15.142,4.705-26.181,8.135
													c-22.093,6.983-52.573,16.617-86.255,27.264c-33.656,10.667-64.149,20.279-86.267,27.108
													c-11.058,3.416-20.021,6.141-26.231,7.978c-3.105,0.918-5.521,1.615-7.166,2.067c-1.645,0.452-2.519,0.659-2.539,0.599
													c-0.02-0.06,0.815-0.385,2.425-0.946c1.609-0.561,3.993-1.357,7.069-2.362c6.153-2.01,15.078-4.851,26.121-8.312
													C271.584,238.398,302.151,229.011,335.924,218.697z"/>
											</g>
										</g>
									</g>
								</g>
							</g>
						</g>
					</g>
				</g>
			</g>
		</g>
		<g>
			<g>
				<g>
					<g>
						<g>
							<g>
								<g>
									<g>
										<g>
											<g>
												<path style="fill:#F5F5F5;" d="M334.131,211.103c35.035-5.051,66.739-9.622,89.72-12.935
													c11.455-1.708,20.729-3.09,27.168-4.05c3.187-0.499,5.666-0.887,7.378-1.155c0.825-0.139,1.46-0.245,1.915-0.322
													c0.431-0.077,0.65-0.123,0.648-0.137c-0.002-0.013-0.226,0.006-0.661,0.058c-0.458,0.059-1.097,0.142-1.927,0.249
													c-1.716,0.242-4.202,0.592-7.396,1.043c-6.44,0.955-15.715,2.331-27.172,4.031
													c-22.949,3.517-54.609,8.369-89.594,13.731c-34.964,5.386-66.634,10.215-89.582,13.575
													c-11.474,1.683-20.766,3.003-27.196,3.868c-3.215,0.432-5.714,0.751-7.412,0.946c-1.698,0.195-2.594,0.266-2.605,0.204
													c-0.01-0.062,0.868-0.255,2.548-0.562c1.68-0.307,4.163-0.729,7.364-1.251c6.402-1.044,15.675-2.485,27.142-4.213
													C267.404,220.721,299.11,216.124,334.131,211.103z"/>
											</g>
										</g>
									</g>
								</g>
							</g>
						</g>
					</g>
				</g>
			</g>
		</g>
		<g>
			<g>
				<g>
					<g>
						<g>
							<g>
								<g>
									<g>
										<g>
											<g>
												<path style="fill:#F5F5F5;" d="M333.582,203.328c35.417,0.289,67.467,0.549,90.699,0.739
													c11.589,0.041,20.971,0.073,27.486,0.096c3.227-0.011,5.739-0.02,7.473-0.026c0.837-0.012,1.482-0.021,1.944-0.028
													c0.438-0.011,0.662-0.023,0.662-0.036c0-0.013-0.224-0.027-0.662-0.041c-0.462-0.01-1.106-0.024-1.943-0.043
													c-1.734-0.019-4.246-0.047-7.473-0.083c-6.515-0.026-15.897-0.065-27.486-0.112
													c-23.232,0.013-55.283,0.032-90.701,0.053c-35.4,0.046-67.458,0.039-90.665-0.099
													c-11.603-0.067-20.994-0.163-27.484-0.277c-3.245-0.057-5.765-0.118-7.473-0.18c-1.709-0.063-2.605-0.126-2.605-0.189
													c0-0.062,0.898-0.119,2.606-0.169c1.709-0.05,4.229-0.092,7.474-0.124c6.491-0.065,15.882-0.09,27.486-0.069
													C266.128,202.779,298.184,203.014,333.582,203.328z"/>
											</g>
										</g>
									</g>
								</g>
							</g>
						</g>
					</g>
				</g>
			</g>
		</g>
		<g>
			<g>
				<g>
					<g>
						<g>
							<g>
								<g>
									<g>
										<g>
											<g>
												<path style="fill:#F5F5F5;" d="M334.278,195.56c34.94,5.636,66.559,10.736,89.478,14.432
													c11.442,1.789,20.705,3.238,27.137,4.243c3.19,0.475,5.673,0.845,7.387,1.1c0.829,0.114,1.467,0.202,1.925,0.264
													c0.434,0.055,0.658,0.077,0.66,0.063c0.002-0.013-0.217-0.061-0.647-0.142c-0.455-0.08-1.089-0.192-1.913-0.337
													c-1.71-0.281-4.186-0.689-7.368-1.212c-6.432-1.01-15.693-2.465-27.134-4.263c-22.953-3.493-54.618-8.311-89.61-13.636
													c-34.978-5.296-66.646-10.14-89.549-13.781c-11.452-1.818-20.713-3.332-27.106-4.426
													c-3.196-0.547-5.675-0.988-7.353-1.309c-1.678-0.32-2.553-0.52-2.543-0.583c0.01-0.062,0.906,0.016,2.602,0.224
													c1.696,0.208,4.193,0.547,7.404,1.004c6.422,0.915,15.704,2.308,27.163,4.08
													C267.731,184.824,299.36,189.901,334.278,195.56z"/>
											</g>
										</g>
									</g>
								</g>
							</g>
						</g>
					</g>
				</g>
			</g>
		</g>
		<g>
			<g>
				<g>
					<g>
						<g>
							<g>
								<g>
									<g>
										<g>
											<g>
												<path style="fill:#F5F5F5;" d="M336.217,187.994c33.59,10.915,63.988,20.792,86.021,27.951
													c11.009,3.518,19.922,6.365,26.112,8.343c3.073,0.957,5.465,1.702,7.117,2.216c0.8,0.239,1.416,0.423,1.858,0.555
													c0.42,0.121,0.637,0.176,0.642,0.163c0.004-0.013-0.204-0.094-0.616-0.24c-0.436-0.149-1.044-0.356-1.834-0.626
													c-1.643-0.54-4.022-1.322-7.08-2.326c-6.188-1.982-15.098-4.837-26.104-8.363
													c-22.101-6.961-52.591-16.565-86.284-27.177c-33.685-10.581-64.172-20.21-86.2-27.312
													c-11.014-3.549-19.915-6.461-26.05-8.521c-3.068-1.029-5.444-1.845-7.049-2.419c-1.605-0.574-2.437-0.906-2.416-0.966
													c0.02-0.061,0.893,0.153,2.534,0.618c1.641,0.465,4.052,1.18,7.149,2.123c6.194,1.886,15.134,4.681,26.164,8.185
													C272.242,167.203,302.653,177.059,336.217,187.994z"/>
											</g>
										</g>
									</g>
								</g>
							</g>
						</g>
					</g>
				</g>
			</g>
		</g>
		<g>
			<g>
				<g>
					<g>
						<g>
							<g>
								<g>
									<g>
										<g>
											<g>
												<path style="fill:#F5F5F5;" d="M339.356,180.826c31.406,15.913,59.827,30.314,80.428,40.753
													c10.303,5.158,18.644,9.334,24.435,12.233c2.88,1.416,5.122,2.518,6.669,3.278c0.752,0.359,1.33,0.635,1.745,0.833
													c0.395,0.183,0.601,0.271,0.607,0.259c0.006-0.012-0.187-0.124-0.57-0.33c-0.406-0.213-0.973-0.511-1.71-0.898
													c-1.535-0.784-3.758-1.919-6.616-3.378c-5.789-2.904-14.127-7.085-24.426-12.251
													c-20.697-10.256-49.252-24.405-80.805-40.041c-31.55-15.604-60.098-29.777-80.701-40.159
													c-10.303-5.189-18.621-9.425-24.347-12.396c-2.863-1.485-5.078-2.654-6.57-3.465c-1.492-0.811-2.261-1.265-2.231-1.321
													c0.03-0.056,0.856,0.29,2.401,1c1.545,0.711,3.809,1.787,6.715,3.193c5.811,2.811,14.187,6.939,24.511,12.087
													C279.541,150.516,307.978,164.897,339.356,180.826z"/>
											</g>
										</g>
									</g>
								</g>
							</g>
						</g>
					</g>
				</g>
			</g>
		</g>
		<g>
			<g>
				<g>
					<g>
						<g>
							<g>
								<g>
									<g>
										<g>
											<g>
												<path style="fill:#F5F5F5;" d="M343.613,174.224c28.46,20.489,54.216,39.031,72.884,52.471
													c9.346,6.66,16.912,12.052,22.167,15.796c2.617,1.836,4.653,3.265,6.059,4.251c0.685,0.469,1.212,0.829,1.589,1.088
													c0.361,0.242,0.55,0.36,0.558,0.349c0.008-0.011-0.164-0.15-0.51-0.412c-0.367-0.273-0.879-0.653-1.545-1.147
													c-1.39-1.008-3.404-2.467-5.991-4.342c-5.251-3.747-12.814-9.144-22.155-15.811
													c-18.794-13.274-44.721-31.587-73.372-51.824c-28.653-20.205-54.57-38.542-73.25-51.926
													c-9.341-6.69-16.876-12.139-22.054-15.943c-2.589-1.902-4.589-3.393-5.932-4.421c-1.343-1.028-2.029-1.594-1.991-1.644
													c0.038-0.051,0.799,0.416,2.211,1.352c1.412,0.937,3.475,2.344,6.119,4.173c5.288,3.659,12.896,9.009,22.266,15.662
													C289.409,135.198,315.184,153.723,343.613,174.224z"/>
											</g>
										</g>
									</g>
								</g>
							</g>
						</g>
					</g>
				</g>
			</g>
		</g>
		<g>
			<g>
				<g>
					<g>
						<g>
							<g>
								<g>
									<g>
										<g>
											<g>
												<path style="fill:#F5F5F5;" d="M348.877,168.348c24.835,24.542,47.31,46.751,63.6,62.85
													c8.167,7.992,14.778,14.462,19.369,18.954c2.291,2.209,4.074,3.929,5.305,5.116c0.601,0.566,1.064,1.002,1.395,1.315
													c0.318,0.293,0.486,0.438,0.495,0.429c0.01-0.009-0.139-0.174-0.438-0.484c-0.319-0.325-0.764-0.778-1.343-1.366
													c-1.212-1.205-2.967-2.951-5.223-5.194c-4.588-4.496-11.195-10.97-19.356-18.967
													c-16.44-15.954-39.122-37.964-64.185-62.286c-25.07-24.291-47.737-46.323-64.048-62.367
													c-8.157-8.021-14.728-14.542-19.234-19.083c-2.253-2.27-3.991-4.045-5.153-5.263c-1.162-1.218-1.75-1.88-1.704-1.925
													c0.046-0.044,0.722,0.532,1.967,1.671c1.245,1.139,3.058,2.841,5.376,5.048c4.638,4.414,11.298,10.849,19.489,18.837
													C301.577,121.604,324.073,143.8,348.877,168.348z"/>
											</g>
										</g>
									</g>
								</g>
							</g>
						</g>
					</g>
				</g>
			</g>
		</g>
		<g>
			<g>
				<g>
					<g>
						<g>
							<g>
								<g>
									<g>
										<g>
											<g>
												<path style="fill:#F5F5F5;" d="M355.015,163.34c20.605,27.998,39.252,53.334,52.768,71.699
													c6.788,9.129,12.284,16.52,16.1,21.651c1.91,2.529,3.396,4.497,4.422,5.855c0.503,0.65,0.891,1.151,1.168,1.51
													c0.267,0.338,0.409,0.506,0.42,0.499c0.011-0.008-0.109-0.192-0.354-0.545c-0.263-0.369-0.631-0.884-1.108-1.552
													c-1.004-1.374-2.459-3.364-4.328-5.921c-3.813-5.135-9.303-12.529-16.085-21.662
													c-13.687-18.245-32.57-43.415-53.437-71.23c-20.878-27.785-39.743-52.974-53.288-71.29
													c-6.774-9.156-12.221-16.591-15.946-21.758c-1.862-2.583-3.294-4.599-4.247-5.979c-0.953-1.379-1.427-2.122-1.375-2.159
													c0.053-0.037,0.629,0.634,1.676,1.948c1.048,1.313,2.566,3.268,4.504,5.799c3.875,5.061,9.424,12.425,16.237,21.554
													C315.772,110.014,334.442,135.341,355.015,163.34z"/>
											</g>
										</g>
									</g>
								</g>
							</g>
						</g>
					</g>
				</g>
			</g>
		</g>
		<g>
			<g>
				<g>
					<g>
						<g>
							<g>
								<g>
									<g>
										<g>
											<g>
												<path style="fill:#F5F5F5;" d="M361.881,159.323c15.847,30.785,30.188,58.643,40.583,78.837
													c5.237,10.048,9.476,18.183,12.419,23.831c1.48,2.788,2.631,4.957,3.426,6.455c0.393,0.719,0.695,1.272,0.911,1.669
													c0.209,0.374,0.323,0.562,0.336,0.556c0.012-0.006-0.077-0.207-0.262-0.592c-0.201-0.405-0.48-0.969-0.844-1.702
													c-0.771-1.51-1.888-3.696-3.322-6.506c-2.939-5.651-7.173-13.788-12.401-23.84c-10.585-20.1-25.187-47.83-41.323-78.472
													c-16.153-30.615-30.735-58.361-41.167-78.509c-5.218-10.073-9.402-18.245-12.249-23.914
													c-1.424-2.834-2.514-5.043-3.233-6.551c-0.719-1.507-1.068-2.313-1.01-2.342c0.058-0.028,0.52,0.722,1.343,2.178
													c0.824,1.456,2.009,3.618,3.516,6.411c3.014,5.588,7.31,13.704,12.571,23.756
													C331.701,100.69,346.067,128.542,361.881,159.323z"/>
											</g>
										</g>
									</g>
								</g>
							</g>
						</g>
					</g>
				</g>
			</g>
		</g>
		<g>
			<g>
				<g>
					<g>
						<g>
							<g>
								<g>
									<g>
										<g>
											<g>
												<path style="fill:#F5F5F5;" d="M369.312,156.403c10.666,32.825,20.318,62.529,27.314,84.06
													c3.545,10.724,6.414,19.405,8.407,25.433c1.01,2.979,1.796,5.297,2.339,6.898c0.272,0.77,0.48,1.362,0.63,1.787
													c0.147,0.401,0.228,0.605,0.242,0.6c0.013-0.004-0.042-0.216-0.163-0.625c-0.133-0.43-0.318-1.03-0.557-1.81
													c-0.517-1.609-1.265-3.939-2.227-6.933c-1.988-6.03-4.851-14.713-8.387-25.44
													c-7.199-21.468-17.132-51.085-28.107-83.813c-10.997-32.703-20.906-62.333-27.947-83.826
													c-3.522-10.745-6.332-19.455-8.225-25.489c-0.947-3.017-1.666-5.365-2.132-6.964c-0.466-1.598-0.68-2.448-0.617-2.467
													c0.062-0.02,0.396,0.792,0.974,2.356c0.578,1.564,1.399,3.88,2.435,6.869c2.072,5.978,5.001,14.651,8.569,25.382
													C349,93.884,358.678,123.587,369.312,156.403z"/>
											</g>
										</g>
									</g>
								</g>
							</g>
						</g>
					</g>
				</g>
			</g>
		</g>
		<g>
			<g>
				<g>
					<g>
						<g>
							<g>
								<g>
									<g>
										<g>
											<g>
												<path style="fill:#F5F5F5;" d="M377.125,154.656c5.219,34.047,9.942,64.857,13.366,87.19
													c1.764,11.132,3.193,20.144,4.185,26.402c0.515,3.097,0.916,5.506,1.193,7.17c0.143,0.802,0.253,1.419,0.333,1.861
													c0.079,0.419,0.127,0.632,0.141,0.63c0.014-0.002-0.007-0.22-0.06-0.642c-0.061-0.445-0.147-1.066-0.258-1.872
													c-0.25-1.668-0.612-4.083-1.078-7.187c-0.987-6.259-2.409-15.272-4.165-26.405
													c-3.634-22.302-8.646-53.069-14.186-87.068c-5.564-33.977-10.552-64.754-14.025-87.055
													c-1.739-11.15-3.103-20.181-3.997-26.429c-0.447-3.124-0.777-5.553-0.978-7.203c-0.202-1.65-0.275-2.521-0.211-2.531
													c0.064-0.01,0.263,0.843,0.58,2.476c0.317,1.633,0.753,4.045,1.292,7.156c1.078,6.221,2.566,15.233,4.353,26.376
													C367.186,89.81,371.935,120.623,377.125,154.656z"/>
											</g>
										</g>
									</g>
								</g>
							</g>
						</g>
					</g>
				</g>
			</g>
		</g>
		<g>
			<g>
				<g>
					<g>
						<g>
							<g>
								<g>
									<g>
										<g>
											<g>
												<path style="fill:#F5F5F5;" d="M385.123,154.118c-0.274,34.421-0.523,65.571-0.703,88.15
													c-0.034,11.263-0.062,20.382-0.082,26.714c0.014,3.137,0.024,5.578,0.031,7.263c0.013,0.814,0.023,1.44,0.03,1.889
													c0.011,0.425,0.024,0.643,0.037,0.643c0.014,0,0.027-0.218,0.042-0.643c0.01-0.449,0.024-1.075,0.043-1.889
													c0.019-1.685,0.046-4.126,0.08-7.263c0.023-6.332,0.056-15.45,0.098-26.714c-0.029-22.579-0.068-53.73-0.112-88.152
													c-0.07-34.405-0.083-65.561,0.045-88.116c0.062-11.277,0.155-20.404,0.268-26.712c0.057-3.154,0.117-5.603,0.181-7.263
													c0.063-1.661,0.128-2.532,0.193-2.532c0.064,0,0.123,0.873,0.175,2.533c0.052,1.661,0.097,4.11,0.132,7.264
													c0.071,6.308,0.102,15.436,0.088,26.713C385.646,88.559,385.424,119.714,385.123,154.118z"/>
											</g>
										</g>
									</g>
								</g>
							</g>
						</g>
					</g>
				</g>
			</g>
		</g>
		<g>
			<g>
				<g>
					<g>
						<g>
							<g>
								<g>
									<g>
										<g>
											<g>
												<path style="fill:#F5F5F5;" d="M393.117,154.789c-5.776,33.962-11.003,64.695-14.792,86.972
													c-1.833,11.122-3.318,20.125-4.348,26.377c-0.487,3.101-0.866,5.514-1.128,7.18c-0.116,0.806-0.207,1.426-0.271,1.871
													c-0.056,0.422-0.078,0.639-0.064,0.642c0.014,0.002,0.063-0.211,0.146-0.629c0.082-0.442,0.196-1.059,0.345-1.859
													c0.288-1.662,0.706-4.069,1.243-7.162c1.035-6.251,2.527-15.254,4.368-26.374c3.579-22.31,8.517-53.089,13.973-87.1
													c5.426-33.998,10.39-64.779,14.122-87.041c1.864-11.131,3.415-20.133,4.536-26.347c0.561-3.107,1.013-5.517,1.342-7.147
													c0.328-1.631,0.533-2.482,0.597-2.472c0.064,0.01-0.016,0.881-0.229,2.529c-0.213,1.649-0.56,4.075-1.028,7.196
													c-0.937,6.243-2.364,15.264-4.181,26.402C404.12,90.106,398.917,120.849,393.117,154.789z"/>
											</g>
										</g>
									</g>
								</g>
							</g>
						</g>
					</g>
				</g>
			</g>
		</g>
		<g>
			<g>
				<g>
					<g>
						<g>
							<g>
								<g>
									<g>
										<g>
											<g>
												<path style="fill:#F5F5F5;" d="M400.903,156.669c-11.208,32.653-21.352,62.203-28.704,83.622
													c-3.612,10.702-6.537,19.366-8.567,25.383c-0.983,2.988-1.748,5.313-2.276,6.918c-0.246,0.777-0.435,1.376-0.57,1.806
													c-0.124,0.408-0.181,0.62-0.167,0.624c0.013,0.004,0.097-0.199,0.246-0.599c0.153-0.424,0.366-1.015,0.643-1.783
													c0.554-1.597,1.357-3.91,2.388-6.882c2.036-6.015,4.967-14.677,8.588-25.376c7.148-21.484,17.01-51.124,27.907-83.876
													c10.865-32.745,20.753-62.382,28.045-83.794c3.644-10.707,6.635-19.359,8.75-25.324
													c1.058-2.982,1.896-5.292,2.485-6.852c0.589-1.56,0.93-2.369,0.993-2.349c0.063,0.02-0.157,0.868-0.634,2.463
													c-0.477,1.596-1.212,3.939-2.18,6.95c-1.936,6.021-4.806,14.712-8.405,25.434
													C422.253,94.478,412.132,124.041,400.903,156.669z"/>
											</g>
										</g>
									</g>
								</g>
							</g>
						</g>
					</g>
				</g>
			</g>
		</g>
		<g>
			<g>
				<g>
					<g>
						<g>
							<g>
								<g>
									<g>
										<g>
											<g>
												<path style="fill:#F5F5F5;" d="M408.28,159.715c-16.353,30.534-31.152,58.165-41.879,78.193
													c-5.301,10.017-9.592,18.125-12.571,23.756c-1.455,2.8-2.587,4.979-3.369,6.483c-0.369,0.731-0.653,1.293-0.856,1.696
													c-0.189,0.384-0.279,0.584-0.267,0.59c0.012,0.006,0.127-0.181,0.339-0.554c0.219-0.395,0.525-0.947,0.923-1.663
													c0.805-1.492,1.972-3.654,3.472-6.432c2.984-5.628,7.281-13.734,12.589-23.747
													c10.539-20.122,25.079-47.883,41.146-78.56c16.035-30.673,30.6-58.428,41.268-78.459
													c5.332-10.016,9.686-18.104,12.739-23.671c1.526-2.784,2.727-4.938,3.561-6.388c0.834-1.451,1.3-2.198,1.358-2.169
													c0.057,0.029-0.298,0.832-1.028,2.334c-0.73,1.502-1.836,3.703-3.281,6.528c-2.888,5.65-7.131,13.793-12.421,23.83
													C439.428,101.561,424.649,129.209,408.28,159.715z"/>
											</g>
										</g>
									</g>
								</g>
							</g>
						</g>
					</g>
				</g>
			</g>
		</g>
		<g>
			<g>
				<g>
					<g>
						<g>
							<g>
								<g>
									<g>
										<g>
											<g>
												<path style="fill:#F5F5F5;" d="M415.076,163.848c-21.064,27.673-40.125,52.716-53.942,70.869
													c-6.847,9.088-12.389,16.445-16.238,21.554c-1.888,2.545-3.356,4.525-4.37,5.892c-0.482,0.665-0.853,1.178-1.119,1.545
													c-0.248,0.351-0.37,0.534-0.358,0.542c0.011,0.008,0.155-0.16,0.424-0.496c0.28-0.357,0.671-0.855,1.179-1.502
													c1.036-1.352,2.536-3.309,4.463-5.825c3.853-5.106,9.401-12.46,16.254-21.543
													c13.646-18.274,32.472-43.484,53.276-71.343c20.771-27.86,39.622-53.061,53.38-71.224
													c6.878-9.083,12.479-16.41,16.39-21.444c1.956-2.518,3.488-4.462,4.545-5.768c1.057-1.306,1.638-1.973,1.69-1.936
													c0.052,0.037-0.427,0.777-1.39,2.15c-0.963,1.373-2.409,3.379-4.29,5.95c-3.761,5.141-9.261,12.54-16.1,21.65
													C455.195,111.142,436.151,136.205,415.076,163.848z"/>
											</g>
										</g>
									</g>
								</g>
							</g>
						</g>
					</g>
				</g>
			</g>
		</g>
		<g>
			<g>
				<g>
					<g>
						<g>
							<g>
								<g>
									<g>
										<g>
											<g>
												<path style="fill:#F5F5F5;" d="M421.125,168.96c-25.236,24.153-48.073,46.01-64.626,61.853
													c-8.218,7.942-14.87,14.372-19.49,18.836c-2.272,2.228-4.04,3.962-5.26,5.159c-0.583,0.584-1.031,1.035-1.352,1.357
													c-0.302,0.309-0.451,0.472-0.441,0.481c0.01,0.01,0.178-0.135,0.498-0.426c0.334-0.31,0.8-0.743,1.405-1.306
													c1.239-1.179,3.034-2.886,5.341-5.08c4.623-4.462,11.28-10.887,19.503-18.824
													c16.405-15.988,39.037-38.046,64.046-62.421c24.978-24.381,47.632-46.424,64.13-62.287
													c8.248-7.933,14.953-14.323,19.622-18.706c2.335-2.191,4.159-3.881,5.413-5.011c1.253-1.13,1.934-1.702,1.979-1.657
													c0.046,0.044-0.547,0.703-1.718,1.913c-1.171,1.211-2.921,2.974-5.19,5.229c-4.539,4.51-11.156,10.987-19.37,18.953
													C469.19,122.959,446.367,144.838,421.125,168.96z"/>
											</g>
										</g>
									</g>
								</g>
							</g>
						</g>
					</g>
				</g>
			</g>
		</g>
		<g>
			<g>
				<g>
					<g>
						<g>
							<g>
								<g>
									<g>
										<g>
											<g>
												<path style="fill:#F5F5F5;" d="M426.282,174.922c-28.794,20.044-54.852,38.182-73.739,51.33
													c-9.389,6.603-16.989,11.949-22.267,15.661c-2.601,1.858-4.625,3.303-6.022,4.301c-0.669,0.49-1.184,0.866-1.553,1.136
													c-0.347,0.26-0.521,0.398-0.513,0.409c0.008,0.011,0.198-0.106,0.56-0.345c0.38-0.256,0.909-0.613,1.597-1.077
													c1.413-0.977,3.459-2.392,6.089-4.21c5.281-3.708,12.885-9.049,22.279-15.646c18.764-13.314,44.65-31.682,73.255-51.98
													c28.575-20.309,54.481-38.66,73.317-51.836c9.417-6.59,17.063-11.888,22.377-15.512c2.657-1.812,4.73-3.205,6.149-4.132
													c1.419-0.927,2.183-1.389,2.221-1.338c0.038,0.051-0.652,0.612-2.003,1.631c-1.35,1.019-3.361,2.496-5.964,4.381
													c-5.205,3.769-12.778,9.167-22.167,15.795C481.124,136.748,455.078,154.91,426.282,174.922z"/>
											</g>
										</g>
									</g>
								</g>
							</g>
						</g>
					</g>
				</g>
			</g>
		</g>
		<g>
			<g>
				<g>
					<g>
						<g>
							<g>
								<g>
									<g>
										<g>
											<g>
												<path style="fill:#F5F5F5;" d="M430.419,181.593c-31.665,15.421-60.32,29.377-81.09,39.493
													c-10.335,5.096-18.702,9.221-24.513,12.086c-2.867,1.44-5.099,2.56-6.639,3.334c-0.739,0.382-1.309,0.676-1.716,0.887
													c-0.384,0.204-0.578,0.314-0.572,0.326c0.006,0.012,0.213-0.074,0.609-0.255c0.416-0.195,0.997-0.467,1.751-0.821
													c1.553-0.75,3.802-1.836,6.692-3.233c5.812-2.861,14.182-6.98,24.522-12.068c20.674-10.3,49.197-24.51,80.715-40.212
													c31.49-15.718,60.029-29.909,80.753-40.06c10.361-5.078,18.766-9.15,24.597-11.92c2.916-1.386,5.187-2.446,6.738-3.146
													c1.55-0.7,2.38-1.039,2.409-0.983c0.029,0.056-0.742,0.505-2.24,1.307c-1.498,0.801-3.721,1.955-6.595,3.421
													c-5.747,2.932-14.095,7.113-24.435,12.233C490.729,152.223,462.08,166.204,430.419,181.593z"/>
											</g>
										</g>
									</g>
								</g>
							</g>
						</g>
					</g>
				</g>
			</g>
		</g>
		<g>
			<g>
				<g>
					<g>
						<g>
							<g>
								<g>
									<g>
										<g>
											<g>
												<path style="fill:#F5F5F5;" d="M433.428,188.813c-33.767,10.387-64.324,19.787-86.474,26.601
													c-11.031,3.452-19.962,6.247-26.163,8.188c-3.065,0.984-5.449,1.749-7.096,2.278c-0.792,0.264-1.401,0.468-1.838,0.613
													c-0.413,0.143-0.622,0.222-0.617,0.235c0.004,0.013,0.222-0.041,0.643-0.159c0.442-0.129,1.06-0.309,1.862-0.543
													c1.655-0.503,4.052-1.232,7.132-2.169c6.203-1.936,15.136-4.724,26.17-8.168c22.084-7.011,52.551-16.683,86.219-27.371
													c33.642-10.709,64.122-20.359,86.232-27.215c11.054-3.43,20.013-6.166,26.221-8.01c3.104-0.922,5.519-1.622,7.164-2.076
													c1.645-0.454,2.518-0.662,2.538-0.602c0.02,0.06-0.815,0.386-2.424,0.949c-1.609,0.563-3.991,1.362-7.066,2.371
													c-6.15,2.018-15.071,4.87-26.11,8.345C497.742,169.032,467.187,178.457,433.428,188.813z"/>
											</g>
										</g>
									</g>
								</g>
							</g>
						</g>
					</g>
				</g>
			</g>
		</g>
		<g>
			<g>
				<g>
					<g>
						<g>
							<g>
								<g>
									<g>
										<g>
											<g>
												<path style="fill:#F5F5F5;" d="M435.231,196.405c-35.028,5.095-66.726,9.705-89.703,13.046
													c-11.453,1.722-20.725,3.116-27.163,4.084c-3.186,0.503-5.665,0.894-7.377,1.164c-0.825,0.14-1.46,0.247-1.915,0.324
													c-0.431,0.078-0.65,0.124-0.648,0.137c0.002,0.014,0.226-0.006,0.66-0.059c0.458-0.06,1.097-0.143,1.927-0.252
													c1.716-0.244,4.201-0.598,7.395-1.052c6.439-0.963,15.712-2.351,27.166-4.065c22.944-3.546,54.598-8.438,89.577-13.843
													c34.957-5.429,66.62-10.297,89.564-13.687c11.471-1.697,20.762-3.029,27.191-3.901c3.214-0.437,5.713-0.758,7.411-0.955
													c1.698-0.197,2.594-0.269,2.604-0.207c0.01,0.062-0.867,0.256-2.547,0.566c-1.68,0.31-4.162,0.735-7.362,1.26
													c-6.4,1.051-15.672,2.504-27.136,4.247C501.946,186.704,470.246,191.34,435.231,196.405z"/>
											</g>
										</g>
									</g>
								</g>
							</g>
						</g>
					</g>
				</g>
			</g>
		</g>
	</g>
	<g>
		<g>
			<g>
				
					<ellipse transform="matrix(0.7071 -0.7071 0.7071 0.7071 80.8427 479.2013)" style="fill:#E0E0E0;" cx="618.868" cy="142.015" rx="52.949" ry="52.949"/>
			</g>
			<g>
				
					<ellipse transform="matrix(0.7071 -0.7071 0.7071 0.7071 84.978 477.4884)" style="fill:#F5F5F5;" cx="618.868" cy="136.167" rx="52.949" ry="52.95"/>
			</g>
			<g>
				
					<ellipse transform="matrix(0.9737 -0.228 0.228 0.9737 -14.7455 144.7016)" style="fill:#FFFFFF;" cx="618.869" cy="136.167" rx="35.466" ry="35.466"/>
			</g>
			<g>
				<circle style="fill:#EBEBEB;" cx="618.869" cy="136.167" r="17.356"/>
			</g>
			<g>
				<polygon style="fill:#EBEBEB;" points="655.774,97.403 654.335,86.106 665.834,73.8 666.661,85.991 				"/>
			</g>
			<g>
				<polygon style="fill:#EBEBEB;" points="680.454,88.414 668.789,87.464 657.096,98.713 668.791,99.963 				"/>
			</g>
			<g>
				<g>
					<path style="fill:#E0E0E0;" d="M667.135,84.285c-5.494,5.496-10.989,10.992-16.483,16.488
						c-8.717,8.718-17.433,17.437-26.15,26.156c-2.004,2.004-4.008,4.008-6.011,6.013c-1.905,1.905,1.07,4.845,2.977,2.938
						c5.495-5.496,10.989-10.992,16.484-16.488c8.716-8.718,17.433-17.437,26.15-26.156c2.004-2.004,4.007-4.009,6.011-6.013
						C672.016,85.318,669.042,82.378,667.135,84.285L667.135,84.285z"/>
				</g>
			</g>
		</g>
	</g>
	<g>
		<g>
			<g>
				<g>
					<path style="fill:#F5F5F5;" d="M148.782,131.572c2.243-1.592,4.663-2.853,7.186-3.776l0.986-7.463l12.401-1.136l2.326,7.158
						c2.65,0.449,5.259,1.248,7.754,2.407l5.971-4.578l9.573,7.966l-3.415,6.703c1.593,2.243,2.854,4.664,3.776,7.188l7.462,0.986
						l1.137,12.401l-7.159,2.327c-0.449,2.649-1.249,5.258-2.407,7.753l4.577,5.972l-7.965,9.573l-6.704-3.416
						c-2.243,1.593-4.664,2.853-7.187,3.776l-0.986,7.463l-12.401,1.136l-2.327-7.159c-2.649-0.449-5.258-1.249-7.753-2.407
						l-5.971,4.578l-9.573-7.965l3.415-6.703c-1.593-2.243-2.854-4.663-3.776-7.188l-7.462-0.986l-1.137-12.401l7.159-2.327
						c0.449-2.649,1.249-5.258,2.407-7.753l-4.578-5.972l7.965-9.573L148.782,131.572L148.782,131.572z M156.625,147.624
						c-4.719,5.672-3.947,14.095,1.725,18.814c5.672,4.719,14.095,3.947,18.814-1.725c4.719-5.672,3.947-14.095-1.725-18.814
						C169.767,141.181,161.344,141.953,156.625,147.624z"/>
				</g>
			</g>
		</g>
	</g>
	<g>
		<g>
			<g>
				<g>
					<path style="fill:#F5F5F5;" d="M118.871,76.907c1.53-1.086,3.18-1.946,4.901-2.575l0.672-5.089l8.457-0.775l1.587,4.882
						c1.807,0.306,3.586,0.851,5.288,1.641l4.072-3.122l6.528,5.432l-2.329,4.571c1.086,1.53,1.946,3.181,2.575,4.902l5.089,0.672
						l0.775,8.457l-4.882,1.587c-0.306,1.807-0.851,3.585-1.641,5.287l3.121,4.073l-5.431,6.528l-4.572-2.329
						c-1.53,1.086-3.18,1.945-4.902,2.575l-0.672,5.089l-8.457,0.775l-1.587-4.882c-1.807-0.306-3.586-0.852-5.287-1.641
						l-4.072,3.122l-6.528-5.432l2.329-4.571c-1.086-1.53-1.946-3.18-2.575-4.902l-5.089-0.672l-0.775-8.457l4.882-1.587
						c0.306-1.806,0.852-3.586,1.641-5.287l-3.122-4.072l5.431-6.528L118.871,76.907L118.871,76.907z M124.22,87.854
						c-3.218,3.868-2.692,9.612,1.176,12.83c3.868,3.218,9.612,2.691,12.83-1.176c3.218-3.868,2.692-9.612-1.176-12.83
						C133.182,83.459,127.438,83.986,124.22,87.854z"/>
				</g>
			</g>
		</g>
	</g>
	<g>
		<g>
			<g>
				<g>
					<path style="fill:#EBEBEB;" d="M90.82,130.193c1.006-0.714,2.092-1.28,3.224-1.694l0.442-3.348l5.563-0.51l1.044,3.211
						c1.188,0.201,2.359,0.56,3.478,1.08l2.679-2.054l4.294,3.573l-1.532,3.007c0.715,1.006,1.28,2.092,1.694,3.225l3.348,0.442
						l0.51,5.563l-3.211,1.044c-0.201,1.188-0.56,2.359-1.08,3.478l2.053,2.679l-3.573,4.294l-3.007-1.532
						c-1.006,0.714-2.092,1.28-3.224,1.694l-0.442,3.348l-5.563,0.51l-1.044-3.212c-1.189-0.201-2.359-0.56-3.478-1.08l-2.679,2.054
						l-4.294-3.573l1.532-3.007c-0.715-1.006-1.28-2.092-1.694-3.224l-3.348-0.442l-0.51-5.563l3.211-1.044
						c0.201-1.188,0.56-2.359,1.08-3.478l-2.053-2.679l3.573-4.294L90.82,130.193L90.82,130.193z M94.338,137.394
						c-2.117,2.544-1.771,6.323,0.774,8.44c2.544,2.117,6.323,1.771,8.44-0.774c2.117-2.544,1.771-6.323-0.774-8.44
						C100.233,134.504,96.455,134.85,94.338,137.394z"/>
				</g>
			</g>
		</g>
	</g>
</g>
<g id="Background_Simple" style="display:none;">
	<path style="display:inline;fill:#F5F5F5;" d="M560.116,124.565l-1.324-3.646c-11.161-30.739-37.939-53.275-70.054-57.604
		c-4.128-0.557-8.298-0.816-12.474-0.758c-30.067,0.412-59.512,17.206-75.49,43.054c-9.397,15.202-14.883,33.77-29.093,44.488
		c-18.494,13.949-44.246,9.359-66.652,4.152c-22.406-5.207-48.188-9.733-66.622,4.297c-11.545,8.787-17.567,23.359-19.662,37.797
		c-5.545,38.224,14.055,77.308,44.214,100.813c30.16,23.505,69.322,32.893,107.482,32.826c53.457-0.094,108.01-18.78,146.161-56.852
		C554.753,235.061,574.145,176.683,560.116,124.565z"/>
	
		<ellipse transform="matrix(0.7071 -0.7071 0.7071 0.7071 -41.3947 139.7322)" style="display:inline;fill:#F5F5F5;" cx="147.974" cy="119.834" rx="32.76" ry="32.76"/>
	
		<ellipse transform="matrix(0.1618 -0.9868 0.9868 0.1618 419.6732 733.7708)" style="display:inline;fill:#F5F5F5;" cx="641.79" cy="119.834" rx="32.76" ry="32.76"/>
</g>
<g id="Floor">
	<g>
		<path style="fill:#263238;" d="M698.344,444.207c0,0.144-140.56,0.26-313.91,0.26c-173.41,0-313.94-0.117-313.94-0.26
			s140.53-0.26,313.94-0.26C557.784,443.947,698.344,444.063,698.344,444.207z"/>
	</g>
</g>
<g id="Plant">
	<g>
		<g>
			<g>
				<path style="fill:#FF725E;" d="M203.67,403.212c2.095,0.309,3.941,1.672,5.151,3.41c1.21,1.738,1.838,3.823,2.155,5.917
					c0.612,4.051-0.554,8.621-2.113,12.409c-4.088-1.998-6.206-6.833-7.126-9.353C200.282,411.611,200.072,403.528,203.67,403.212"
					/>
			</g>
		</g>
		<g>
			<g>
				<path style="fill:#FF725E;" d="M214.456,430.4c-1.128-2.079-0.859-4.765,0.437-6.744c1.297-1.978,3.506-3.263,5.831-3.701
					c1.075-0.203,2.296-0.202,3.132,0.503c0.782,0.659,1.023,1.807,0.801,2.805c-0.222,0.998-0.838,1.865-1.533,2.615
					C220.741,428.45,217.961,430.501,214.456,430.4"/>
			</g>
		</g>
		<g>
			<g>
				<g>
					<path style="fill:#263238;" d="M213.455,443.596c-0.021,0.001-0.053-0.298-0.099-0.839c-0.049-0.596-0.111-1.366-0.187-2.291
						c-0.125-1.923-0.359-4.663,0.376-7.581c0.718-2.907,2.174-5.297,3.574-6.665c0.691-0.694,1.331-1.169,1.798-1.452
						c0.227-0.151,0.422-0.238,0.548-0.307c0.128-0.065,0.197-0.095,0.202-0.086c0.041,0.058-1.073,0.583-2.396,1.991
						c-1.335,1.38-2.731,3.734-3.437,6.592c-0.721,2.858-0.527,5.569-0.455,7.496c0.046,0.969,0.082,1.754,0.093,2.297
						C213.482,443.295,213.474,443.595,213.455,443.596z"/>
				</g>
			</g>
		</g>
		<g>
			<g>
				<g>
					<path style="fill:#263238;" d="M204.373,409.353c0.01-0.003,0.056,0.115,0.135,0.342c0.086,0.258,0.196,0.588,0.333,0.997
						c0.284,0.867,0.679,2.128,1.153,3.689c0.95,3.122,2.201,7.455,3.475,12.269c1.273,4.816,2.327,9.202,3.045,12.385
						c0.359,1.592,0.639,2.882,0.821,3.777c0.083,0.423,0.151,0.765,0.204,1.031c0.043,0.237,0.061,0.362,0.051,0.364
						c-0.01,0.002-0.047-0.119-0.11-0.351c-0.067-0.263-0.152-0.601-0.258-1.019c-0.224-0.923-0.534-2.196-0.913-3.754
						c-0.77-3.17-1.855-7.544-3.128-12.358c-1.273-4.811-2.492-9.149-3.39-12.286c-0.441-1.542-0.801-2.802-1.062-3.715
						c-0.115-0.416-0.207-0.752-0.279-1.013C204.391,409.48,204.363,409.356,204.373,409.353z"/>
				</g>
			</g>
		</g>
		<g>
			<g>
				<path style="fill:#FF725E;" d="M209.373,434.335c-2.033-4.554-6.396-7.991-11.299-8.903c-1.249-0.232-2.786-0.19-3.474,0.878
					c-0.689,1.069-0.087,2.494,0.667,3.518c3.136,4.264,9.021,6.287,14.115,4.851"/>
			</g>
		</g>
		<g>
			<g>
				<g>
					<path style="fill:#263238;" d="M199.613,429.016c0.004-0.02,0.282,0.022,0.785,0.117c0.252,0.046,0.56,0.103,0.908,0.21
						c0.347,0.106,0.756,0.19,1.181,0.362c0.43,0.158,0.906,0.321,1.39,0.559c0.498,0.21,1.002,0.489,1.531,0.787
						c1.042,0.621,2.133,1.403,3.146,2.375c1.004,0.981,1.827,2.043,2.477,3.068c0.31,0.523,0.605,1.018,0.824,1.512
						c0.249,0.48,0.421,0.953,0.585,1.381c0.179,0.423,0.267,0.831,0.376,1.177c0.11,0.347,0.169,0.655,0.215,0.906
						c0.096,0.503,0.14,0.781,0.12,0.785c-0.065,0.015-0.246-1.106-0.907-2.793c-0.174-0.418-0.354-0.879-0.609-1.347
						c-0.225-0.483-0.524-0.965-0.835-1.475c-0.652-0.999-1.466-2.037-2.452-3c-0.995-0.954-2.062-1.729-3.079-2.353
						c-0.517-0.299-1.009-0.583-1.496-0.799c-0.473-0.245-0.938-0.416-1.358-0.585C200.718,429.265,199.6,429.079,199.613,429.016z"
						/>
				</g>
			</g>
		</g>
	</g>
</g>
<g id="Speech_Bubble">
	<g>
		<g>
			
				<ellipse transform="matrix(0.438 -0.899 0.899 0.438 90.3719 306.355)" style="fill:#FFFFFF;" cx="290.209" cy="80.898" rx="27.924" ry="27.924"/>
			<path style="fill:#263238;" d="M311.339,62.643c-0.007,0.006-0.12-0.099-0.333-0.309c-0.228-0.229-0.539-0.541-0.936-0.941
				c-0.206-0.21-0.434-0.442-0.685-0.697c-0.263-0.245-0.575-0.487-0.898-0.763c-0.652-0.548-1.387-1.202-2.325-1.792
				c-1.783-1.305-4.211-2.567-7.178-3.565c-2.969-0.981-6.552-1.588-10.489-1.329c-3.915,0.27-8.22,1.343-12.206,3.719
				c-3.944,2.377-7.728,5.834-10.208,10.426c-0.679,1.113-1.161,2.34-1.693,3.56c-0.235,0.622-0.417,1.268-0.63,1.906
				c-0.231,0.634-0.372,1.296-0.511,1.962c-0.346,1.32-0.458,2.693-0.63,4.07c-0.031,1.388-0.111,2.79,0.046,4.199
				c0.249,2.806,0.822,5.668,1.99,8.351c1.133,2.69,2.693,5.239,4.625,7.536c1.992,2.246,4.287,4.161,6.785,5.674
				c2.485,1.547,5.234,2.529,7.975,3.184c1.372,0.36,2.771,0.485,4.148,0.656c1.388,0.031,2.764,0.119,4.12-0.032
				c0.68-0.041,1.355-0.084,2.016-0.22c0.662-0.118,1.328-0.205,1.977-0.347c1.285-0.349,2.569-0.647,3.769-1.158
				c4.905-1.787,8.874-5.03,11.799-8.587c2.93-3.599,4.616-7.703,5.451-11.537c0.828-3.857,0.747-7.49,0.208-10.57
				c-0.556-3.08-1.453-5.666-2.485-7.619c-0.448-1.014-0.988-1.836-1.436-2.561c-0.227-0.36-0.421-0.704-0.625-0.999
				c-0.216-0.285-0.413-0.544-0.59-0.778c-0.338-0.452-0.602-0.804-0.795-1.063C311.42,62.776,311.332,62.649,311.339,62.643
				c0.007-0.006,0.108,0.109,0.299,0.34c0.204,0.251,0.482,0.594,0.839,1.033c0.185,0.231,0.389,0.486,0.614,0.766
				c0.212,0.292,0.414,0.632,0.649,0.99c0.464,0.72,1.022,1.539,1.488,2.553c1.068,1.953,2.003,4.552,2.593,7.66
				c0.573,3.108,0.683,6.785-0.132,10.7c-0.822,3.891-2.514,8.066-5.475,11.736c-2.956,3.627-6.982,6.937-11.97,8.77
				c-1.22,0.522-2.527,0.83-3.835,1.187c-0.661,0.146-1.338,0.236-2.012,0.358c-0.673,0.14-1.361,0.185-2.053,0.228
				c-1.381,0.155-2.782,0.069-4.196,0.039c-1.404-0.171-2.829-0.297-4.227-0.662c-2.794-0.663-5.596-1.664-8.131-3.238
				c-2.547-1.54-4.888-3.492-6.917-5.781c-1.969-2.34-3.559-4.939-4.712-7.683c-1.188-2.736-1.771-5.653-2.021-8.513
				c-0.158-1.436-0.075-2.864-0.04-4.277c0.175-1.403,0.294-2.801,0.648-4.145c0.143-0.678,0.288-1.352,0.524-1.997
				c0.218-0.649,0.406-1.306,0.646-1.939c0.543-1.242,1.038-2.49,1.732-3.621c2.538-4.668,6.397-8.171,10.414-10.569
				c4.06-2.397,8.437-3.465,12.406-3.713c3.992-0.238,7.614,0.404,10.606,1.423c2.99,1.035,5.426,2.338,7.203,3.678
				c0.936,0.609,1.665,1.279,2.31,1.843c0.32,0.285,0.628,0.534,0.886,0.786c0.245,0.263,0.468,0.502,0.669,0.719
				c0.383,0.416,0.681,0.742,0.901,0.98C311.247,62.52,311.346,62.637,311.339,62.643z"/>
			<path style="fill:#FF725E;" d="M281.257,74.503h4.78c0,0,0-4.014,4.171-4.086c2.167-0.037,3.29,1.382,3.746,2.469
				c0.53,1.263,0.37,2.701-0.34,3.872c-0.811,1.337-2.588,2.552-5.81,1.984v10.779h4.727v-6.314c0,0,6.63-1.714,6.63-9.02
				c0-6.991-6.269-8.614-8.952-8.614C288.157,65.573,281.167,66.07,281.257,74.503z"/>
			<rect x="287.791" y="91.742" style="fill:#FF725E;" width="4.797" height="4.481"/>
		</g>
		<g>
			<path style="fill:#FFFFFF;" d="M328.396,93.977c0,1.873-1.518,3.391-3.391,3.391c-1.873,0-3.391-1.518-3.391-3.391
				c0-1.873,1.518-3.391,3.391-3.391C326.877,90.586,328.396,92.104,328.396,93.977z"/>
			<path style="fill:#263238;" d="M328.396,93.977c-0.047,0.001-0.054-0.302-0.207-0.803c-0.151-0.492-0.502-1.203-1.247-1.743
				c-0.72-0.541-1.888-0.834-3.008-0.408c-1.112,0.391-2.065,1.575-2.053,2.953c-0.012,1.379,0.941,2.563,2.053,2.954
				c1.121,0.425,2.289,0.133,3.009-0.409c0.745-0.539,1.096-1.251,1.247-1.743C328.342,94.279,328.348,93.976,328.396,93.977
				c0.026-0.002,0.093,0.304-0.005,0.853c-0.097,0.538-0.419,1.348-1.219,1.992c-0.773,0.645-2.097,1.036-3.406,0.571
				c-1.297-0.423-2.435-1.8-2.419-3.417c-0.015-1.617,1.122-2.993,2.419-3.416c1.308-0.465,2.633-0.074,3.406,0.571
				c0.801,0.645,1.122,1.455,1.22,1.993C328.488,93.674,328.421,93.979,328.396,93.977z"/>
		</g>
	</g>
</g>
<g id="Arrow_3">
	<g>
		<path style="fill:#455A64;" d="M526.207,247.715c0,0,19.069,1.266,29.631,18.937c10.561,17.671,21.1,65.725,37.054,76.411
			c15.954,10.685,17.257,10.08,17.257,10.08s-22.847,5.766-35.297,1.274c-12.45-4.491-24.106-20.77-31.731-43.317
			c-8.123-24.021-17.399-48.669-36.774-53.941l13.787-9.444H526.207z"/>
		<path style="fill:#455A64;" d="M612.119,231.104c-0.627,0.467-12.413,24.143-12.413,24.143l5.843-0.852
			c0,0,0.062,26.141-0.77,34.165c-5.642,54.445-20.7,52.818-20.7,52.818l9.304,9.301c0,0,12.957,4.119,16.353,2.649
			c9.428-4.078,20.739-7.414,19.378-72.045c-0.541-25.703-3.142-30.016-3.142-30.016l8.006-2.267l-20.98-17.175"/>
		<path style="opacity:0.3;" d="M526.207,247.715c0,0,19.069,1.266,29.631,18.937c10.561,17.671,21.1,65.725,37.054,76.411
			c15.954,10.685,17.257,10.08,17.257,10.08s-22.847,5.766-35.297,1.274c-12.45-4.491-24.106-20.77-31.731-43.317
			c-8.123-24.021-17.399-48.669-36.774-53.941l13.787-9.444H526.207z"/>
		<path style="fill:#455A64;" d="M503.102,291.639c4.639-39.686,23.105-43.924,23.105-43.924s-46.377-4.875-63.183,18.15
			c-16.806,23.026-15.602,36.901-12.27,59.042c3.332,22.141,22.136,85.486,17.834,118.775l54.903-0.014
			C532.791,407.345,498.707,329.235,503.102,291.639z"/>
	</g>
</g>
<g id="Arrow_4">
	<g>
		<path style="fill:#FF725E;" d="M599.308,412.756c0,0,28.241,1.761,46.509-61.695c12.023-41.763,10.375-45.635,10.375-45.635
			h-13.996l41.555-47.078l28.425,43.261l-12.088,0.636c0,0-11.56,125.697-56.417,131.275L599.308,412.756z"/>
		<path style="fill:#FF725E;" d="M520.884,378.151c0.758,1.01,10.879,10.93,11.618,11.618
			c11.934,11.103,30.483,39.429,57.334,44.705c29.216,5.741,48.746,4.041,63.9-4.294c0,0-17.68,4.799-39.401-14.902
			c-21.721-19.701-39.073-34.093-49.47-39.009C554.468,371.352,520.884,378.151,520.884,378.151z"/>
		<path style="opacity:0.3;" d="M520.884,378.151c0.758,1.01,10.879,10.93,11.618,11.618c11.934,11.103,30.483,39.429,57.334,44.705
			c29.216,5.741,48.746,4.041,63.9-4.294c0,0-17.68,4.799-39.401-14.902c-21.721-19.701-39.073-34.093-49.47-39.009
			C554.468,371.352,520.884,378.151,520.884,378.151z"/>
		<path style="fill:#FF725E;" d="M397.292,443.682c0,0,13.586-22.514,40.37-44.64c26.784-22.126,42.311-38.041,86.174-34.159
			c0,0,28.782,1.147,49.355,16.285c0,0-33.002-8.966-50.907,7.772c-18.423,17.223-29.87,44.579-35.324,54.741"/>
	</g>
</g>
<g id="Arrow_2_00000142897751174917917070000004987895599436155778_">
	<g>
		<path style="fill:#FF725E;" d="M178.375,291.209c-20.891-26.742-38.111-65.72-38.111-65.72l10.545-3.822l-46.923-30.693
			l-14.717,58.492l8.401-4.2c0,0,30.09,103.635,102.964,108.947l35.579-28.849C236.113,325.364,199.266,317.952,178.375,291.209z"/>
		<g>
			<path style="fill:#FF725E;" d="M305.549,258.504c0,0-3.397-23.306-20.807-8.27c-17.41,15.036-29.336,64.128-65.357,98.376
				c-15.924,15.14-46.42-1.647-46.42-1.647s20.557-8.881,50.613-68.498c12.158-24.114,26.262-65.949,50.226-63.402
				C297.767,217.61,305.549,258.504,305.549,258.504z"/>
			<path style="opacity:0.3;" d="M305.549,258.504c0,0-3.397-23.306-20.807-8.27c-17.41,15.036-29.336,64.128-65.357,98.376
				c-15.924,15.14-46.42-1.647-46.42-1.647s20.557-8.881,50.613-68.498c12.158-24.114,26.262-65.949,50.226-63.402
				C297.767,217.61,305.549,258.504,305.549,258.504z"/>
			<path style="fill:#FF725E;" d="M273.803,215.062c-2.434-0.538,43.328-7.237,55.59,39.079
				c12.263,46.315,11.445,102.763,24.525,134.604c13.08,31.842,32.68,54.936,32.68,54.936h-47.642
				c-13.898-28.947-34.089-114.278-39.811-150.462C293.423,257.036,286.883,217.957,273.803,215.062z"/>
		</g>
	</g>
</g>
<g id="Arrow_1_00000106113163776478561050000007960024107673467816_">
	<g>
		<path style="fill:#455A64;" d="M121.632,375.793c-21.66-8.092-40.69-29.448-40.69-29.448l6.196-6.085l-45.202-15.725l5.937,37.777
			l8.38-3.816c0,0,31.442,39.336,72.872,39.892l45.888-20.991C175.012,377.395,147.539,385.471,121.632,375.793z"/>
		<path style="fill:#455A64;" d="M257.672,333.824c0,0-4.255-16.409-20.313-3.854c-16.058,12.555-26.58,43.75-56.1,59.452
			c-17.371,9.24-52.135,8.964-52.135,8.964s26.104-15.371,47.573-40.863c15.063-17.885,32.74-51.741,48.664-51.733
			C248.462,305.804,257.672,333.824,257.672,333.824z"/>
		<g>
			<path style="opacity:0.3;" d="M257.672,333.824c0,0-4.255-16.409-20.313-3.854c-16.058,12.555-26.58,43.75-56.1,59.452
				c-17.371,9.24-52.135,8.964-52.135,8.964s26.104-15.371,47.573-40.863c15.063-17.885,32.74-51.741,48.664-51.733
				C248.462,305.804,257.672,333.824,257.672,333.824z"/>
		</g>
		<path style="fill:#455A64;" d="M225.362,305.791c-2.357-0.143,41.253-9.552,54.997,22.503
			c13.744,32.055,15.373,72.705,29.282,94.275c13.909,21.571,22.263,21.663,22.263,21.663H280.53
			c-14.569-19.408-20.479-59.385-27.516-84.816C245.978,333.987,238.033,306.558,225.362,305.791z"/>
	</g>
</g>
<g id="Character">
	<g>
		<g>
			<g>
				<path style="fill:#AE7461;" d="M415.265,161.101c0,0,1.293-17.909,4.815-13.852c3.522,4.057,26.956,34.233,31.29,43.108
					c4.335,8.875-2.502,15.472-2.502,15.472l-21.951,22.189l-7.653-8.291l15.442-23.284l-23.345-24.231L415.265,161.101z"/>
			</g>
		</g>
		<g>
			<path style="fill:#FF725E;" d="M414.058,143.541c0,0,2.137,0.085,6.609,3.279c4.472,3.194,20.23,23.425,20.23,23.425
				l-18.882,17.584l-11.373-13.477c0,0-5.947-25.762-5.308-25.688C405.973,148.736,414.058,143.541,414.058,143.541z"/>
		</g>
		<g>
			<path style="fill:#263238;" d="M326.453,210.108c-1.417,0.507-2.451,1.796-2.967,3.21c-0.515,1.414-0.576,2.951-0.537,4.456
				c0.154,6,1.785,11.853,3.405,17.632c0.333,1.189,0.676,2.4,1.361,3.427c0.685,1.027,1.781,1.859,3.015,1.906
				c0.616,0.024,1.319-0.225,1.528-0.805c0.117-0.327,0.053-0.688-0.013-1.029c-1.86-9.634-3.719-19.268-5.579-28.901"/>
			<path style="fill:#455A64;" d="M385.064,210.386c-2.946-16.236-6.671-32.438-13.137-47.619l-13.153-6.175
				c-7.09-1.029-34.372,7.591-36.412,14.458c-2.04,6.867-0.723,14.228,0.606,21.268c2.404,12.732,4.809,25.464,7.213,38.196
				c1.284,6.798,2.864,14.132,8.088,18.666c6.246,5.422,15.692,5.007,23.607,2.607c10.157-3.079,20.064-9.702,23.36-19.791
				C387.498,225.074,386.365,217.551,385.064,210.386z"/>
			<g>
				<path style="fill:#263238;" d="M363.377,115.637c-0.407-7.229-0.815-14.458-1.222-21.687l-2.399-10.36
					c-2.965-2.918-11.372-0.524-14.665,2.017c-3.293,2.542-4.918,6.753-5.378,10.887c-0.305,2.739-0.26,5.772-2.06,7.858
					c-2.065,2.395-5.94,2.727-7.729,5.334c-1.168,1.703-1.117,4.018-0.361,5.94c0.756,1.922,2.123,3.532,3.501,5.07
					c1.241,1.386,2.539,2.769,4.161,3.68c1.622,0.911,3.641,1.295,5.361,0.583c-0.633,2.652,1.173,5.549,3.742,6.464
					c2.569,0.914,5.59-0.01,7.485-1.971c1.895-1.961,2.721-4.802,2.563-7.524c0.367,1.534,2.284,2.335,3.786,1.854
					c1.503-0.482,2.539-1.922,2.964-3.442S363.465,117.212,363.377,115.637z"/>
				<g>
					<g>
						<g>
							<g>
								<g>
									<g>
										<g>
											<path style="fill:#263238;" d="M360.534,83.954c5.308-7.107,12.67-11.388,21.524-11.925
												c4.995-0.303,7.11,0.644,10.753,1.457c3.643,0.812,6.976,2.6,9.258,5.554c2.711,3.508,5.032,7.467,5.709,11.849
												c0.695,4.5,1.392,9.031,1.251,13.583c-0.141,4.552-1.171,9.175-3.68,12.975l-11.454,2.515
												c-6.365,0.499-12.819,0.993-19.094-0.187c-6.275-1.18-12.457-4.255-16.023-9.551
												C353.824,102.865,355.226,91.061,360.534,83.954z"/>
										</g>
									</g>
									<g>
										<g>
											<path style="fill:#AE7461;" d="M370.802,83.425l15.118-6.796l4.041,0.29c9.047-0.367,15.726,9.333,16.108,16.657
												c0.425,8.136,0.623,18.086-0.405,24.143c-2.068,12.178-12.319,13.636-12.319,13.636l0.224,10.15l5.172,2.706
												l-0.845,28.271l-18.838,2.902l-9.415-34.412l-0.133-8.701l-2.595-44.535C366.896,85.508,368.584,83.635,370.802,83.425z"
												/>
										</g>
									</g>
									<g>
										<g>
											<path style="fill:#6F4439;" d="M387.445,115.693c0.056-0.64,0.384-1.217,0.818-1.623
												c0.868-0.812,2.181-0.945,3.176-0.322c0.994,0.623,1.607,1.964,1.481,3.241l0,0c-0.509,0.768-1.315,1.307-2.228,1.427
												c-0.142,0.019-0.285,0.03-0.429,0.033c-0.697,0.013-1.414-0.191-1.968-0.68
												C387.741,117.28,387.376,116.482,387.445,115.693z"/>
										</g>
									</g>
									<g>
										<g>
											<path style="fill:#263238;" d="M402.501,103.968c0.02,0.827-0.663,1.526-1.526,1.562
												c-0.861,0.037-1.577-0.601-1.598-1.428c-0.02-0.826,0.663-1.526,1.524-1.563
												C401.764,102.503,402.481,103.143,402.501,103.968z"/>
										</g>
									</g>
									<g>
										<g>
											<path style="fill:#263238;" d="M403.491,97.766c-0.196,0.202-1.372-0.688-3.056-0.702
												c-1.681-0.037-2.926,0.815-3.107,0.607c-0.089-0.092,0.113-0.458,0.655-0.844c0.534-0.384,1.441-0.754,2.49-0.738
												c1.048,0.017,1.927,0.413,2.429,0.813C403.416,97.305,403.588,97.676,403.491,97.766z"/>
										</g>
									</g>
									<g>
										<g>
											<path style="fill:#263238;" d="M393.28,111.414c-0.007-0.096,1.041-0.265,2.74-0.464c0.43-0.04,0.838-0.121,0.914-0.413
												c0.105-0.31-0.07-0.775-0.273-1.277c-0.393-1.045-0.805-2.14-1.236-3.287c-1.715-4.679-2.953-8.526-2.764-8.593
												c0.189-0.067,1.733,3.671,3.449,8.35c0.412,1.154,0.807,2.254,1.182,3.306c0.158,0.491,0.431,1.048,0.205,1.69
												c-0.119,0.32-0.437,0.55-0.714,0.621c-0.276,0.081-0.518,0.083-0.731,0.094
												C394.344,111.513,393.286,111.509,393.28,111.414z"/>
										</g>
									</g>
									<g>
										<g>
											<path style="fill:#6F4439;" d="M393.364,131.34c0,0-8.212,0.441-16.29-4.533c0,0,4.262,8.502,16.483,7.491
												L393.364,131.34z"/>
										</g>
									</g>
									<g>
										<g>
											<path style="fill:#263238;" d="M388.314,112.525c0.273-0.013,0.258,1.814,1.808,3.128
												c1.547,1.318,3.497,1.134,3.509,1.389c0.024,0.115-0.438,0.35-1.26,0.364c-0.807,0.019-1.982-0.253-2.93-1.056
												c-0.946-0.805-1.345-1.871-1.399-2.621C387.98,112.964,388.189,112.513,388.314,112.525z"/>
										</g>
									</g>
									<g>
										<g>
											<path style="fill:#263238;" d="M402.66,91.909c-0.287,0.408-1.574,0.119-3.081,0.229
												c-1.511,0.061-2.76,0.492-3.087,0.118c-0.145-0.182,0.023-0.581,0.55-0.989c0.518-0.406,1.412-0.778,2.449-0.837
												c1.037-0.057,1.963,0.211,2.52,0.557C402.577,91.334,402.785,91.712,402.66,91.909z"/>
										</g>
									</g>
									<g>
										<g>
											<path style="fill:#263238;" d="M384.685,103.994c-0.007,0.827,0.687,1.515,1.55,1.538
												c0.861,0.023,1.567-0.626,1.574-1.453c0.007-0.827-0.687-1.515-1.549-1.539
												C385.398,102.516,384.693,103.167,384.685,103.994z"/>
										</g>
									</g>
									<g>
										<g>
											<path style="fill:#263238;" d="M380.734,98.119c0.199,0.199,1.361-0.71,3.044-0.75c1.681-0.065,2.939,0.769,3.116,0.557
												c0.087-0.093-0.121-0.456-0.668-0.834c-0.54-0.376-1.453-0.731-2.501-0.698c-1.048,0.034-1.92,0.444-2.416,0.852
												C380.802,97.657,380.636,98.03,380.734,98.119z"/>
										</g>
									</g>
									<g>
										<g>
											<path style="fill:#263238;" d="M381.507,92.694c0.341,0.373,1.63-0.058,3.19-0.119c1.559-0.109,2.89,0.18,3.184-0.228
												c0.128-0.198-0.09-0.575-0.678-0.921c-0.579-0.345-1.539-0.614-2.611-0.557c-1.072,0.059-1.993,0.43-2.525,0.836
												C381.526,92.113,381.356,92.511,381.507,92.694z"/>
										</g>
									</g>
									<g>
										<g>
											<path style="fill:#AE7461;" d="M369.91,108.094c0.007-0.908-1.02-3.062-1.915-3.211
												c-2.392-0.399-6.712-0.253-6.818,5.831c-0.144,8.316,8.236,6.746,8.255,6.507
												C369.446,117.035,369.883,111.23,369.91,108.094z"/>
										</g>
									</g>
									<g>
										<g>
											<path style="fill:#6F4439;" d="M367.189,114.143c-0.036-0.027-0.147,0.099-0.393,0.207
												c-0.241,0.105-0.653,0.174-1.084,0.004c-0.873-0.338-1.589-1.745-1.603-3.245c-0.008-0.758,0.163-1.475,0.441-2.068
												c0.265-0.604,0.665-1.022,1.109-1.093c0.441-0.094,0.75,0.176,0.848,0.411c0.108,0.235,0.052,0.4,0.096,0.415
												c0.023,0.021,0.181-0.136,0.12-0.48c-0.032-0.166-0.126-0.364-0.319-0.527c-0.197-0.166-0.488-0.253-0.798-0.226
												c-0.642,0.034-1.229,0.614-1.535,1.263c-0.341,0.652-0.551,1.459-0.542,2.31c0.024,1.677,0.855,3.26,2.051,3.628
												c0.582,0.162,1.074-0.005,1.329-0.197C367.171,114.344,367.218,114.159,367.189,114.143z"/>
										</g>
									</g>
									<g>
										<g>
											<path style="fill:#263238;" d="M367.657,104.921l2.204,2.093c8.715-9.112,25.537-31.707,24.602-30.364
												c0,0-6.347-2.289-13.063-0.837c-6.716,1.451-19.401,5.405-18.852,13.377C363.097,97.162,367.657,104.921,367.657,104.921
												z"/>
										</g>
									</g>
								</g>
							</g>
						</g>
					</g>
				</g>
			</g>
			<g>
				<g>
					<path style="fill:#263238;" d="M415.281,225.891c0.66,0.673,11.35,24.484,10.659,41.018
						c-0.691,16.534-10.659,74.087-10.659,74.087l-15.932,89.031h-23.137c0,0,0-56.916,2.072-72.497
						c2.072-15.58,4.489-24.166,5.18-35.612s0.887-35.522,1.578-34.568c0.691,0.954-53.378,139.497-53.378,139.497l-22.745-1.506
						c0,0,8.241-47.552,9.967-56.569c1.727-9.016,8.633-36.68,13.813-50.67c5.18-13.991,6.996-48.885,14.159-63.898
						c7.163-15.012,7.22-19.728,7.22-19.728L415.281,225.891z"/>
				</g>
			</g>
			<g>
				<g>
					<g>
						<g>
							<g>
								<g>
									<g>
										<g>
											<g>
												<g>
													<g>
														<g>
															<g>
																<g>
																	<g>
																		<path style="fill:#263238;" d="M397.995,409.994l-1.212,22.12c0,0,22.077,8.661,22.251,12.771l-42.974-0.81
																			l0.474-34.543L397.995,409.994z"/>
																	</g>
																</g>
															</g>
														</g>
													</g>
												</g>
											</g>
										</g>
									</g>
								</g>
							</g>
						</g>
					</g>
					<g>
						<g>
							<g>
								<g>
									<g>
										<g>
											<g>
												<g>
													<g>
														<g>
															<g>
																<g>
																	<g>
																		<path style="fill:#455A64;" d="M376.06,444.075l0.046-3.346l41.273,1.944c0,0,1.897,0.869,1.656,2.212
																			L376.06,444.075z"/>
																	</g>
																</g>
															</g>
														</g>
													</g>
												</g>
											</g>
										</g>
									</g>
								</g>
							</g>
						</g>
					</g>
					<g>
						<g>
							<g>
								<g>
									<g>
										<g>
											<g>
												<g>
													<g>
														<g>
															<g>
																<g>
																	<g>
																		<g>
																			<path style="fill:#FFFFFF;" d="M397.484,431.908c-0.011,0.21-1.062,0.285-2.107,0.941
																				c-1.062,0.628-1.612,1.527-1.803,1.44c-0.193-0.044,0.144-1.293,1.423-2.064
																				C396.269,431.442,397.533,431.717,397.484,431.908z"/>
																		</g>
																	</g>
																</g>
															</g>
														</g>
													</g>
												</g>
											</g>
										</g>
									</g>
								</g>
							</g>
						</g>
					</g>
					<g>
						<g>
							<g>
								<g>
									<g>
										<g>
											<g>
												<g>
													<g>
														<g>
															<g>
																<g>
																	<g>
																		<g>
																			<path style="fill:#FFFFFF;" d="M401.956,433.858c0.044,0.204-0.872,0.544-1.601,1.418
																				c-0.755,0.853-0.953,1.809-1.162,1.795c-0.198,0.03-0.32-1.202,0.608-2.272
																				C400.719,433.722,401.956,433.657,401.956,433.858z"/>
																		</g>
																	</g>
																</g>
															</g>
														</g>
													</g>
												</g>
											</g>
										</g>
									</g>
								</g>
							</g>
						</g>
					</g>
					<g>
						<g>
							<g>
								<g>
									<g>
										<g>
											<g>
												<g>
													<g>
														<g>
															<g>
																<g>
																	<g>
																		<g>
																			<path style="fill:#FFFFFF;" d="M404.414,439.301c-0.191,0.041-0.464-1.013,0.097-2.152
																				c0.553-1.144,1.55-1.578,1.636-1.402c0.115,0.175-0.533,0.779-0.979,1.722
																				C404.7,438.4,404.624,439.284,404.414,439.301z"/>
																		</g>
																	</g>
																</g>
															</g>
														</g>
													</g>
												</g>
											</g>
										</g>
									</g>
								</g>
							</g>
						</g>
					</g>
				</g>
			</g>
			<g>
				<g>
					<g>
						<g>
							<g>
								<g>
									<g>
										<g>
											<g>
												<g>
													<path style="fill:#263238;" d="M316.421,407.3l-7.222,25.811L297.6,451.879c-0.836,1.353-0.352,3.13,1.055,3.872l0,0
														c0.788,0.415,1.719,0.427,2.514,0.025c5.056-2.561,23.607-12.073,24.03-13.991c0.489-2.222,9.425-26.72,9.425-26.72
														L316.421,407.3z"/>
												</g>
											</g>
										</g>
									</g>
								</g>
							</g>
						</g>
					</g>
					<g>
						<g>
							<g>
								<g>
									<g>
										<g>
											<g>
												<g>
													<path style="fill:#455A64;" d="M298.655,455.752l27.071-15.696l-0.331,1.087c-0.286,0.939-0.892,1.748-1.719,2.278
														c-2.211,1.417-8.401,5.197-22.43,12.381C300.43,456.219,299.454,456.201,298.655,455.752L298.655,455.752z"/>
												</g>
											</g>
										</g>
									</g>
								</g>
							</g>
						</g>
					</g>
					<g>
						<g>
							<g>
								<g>
									<g>
										<g>
											<g>
												<g>
													<g>
														<path style="fill:#FFFFFF;" d="M307.927,446.335c-0.167,0.027-0.336-1.492-1.641-2.679
															c-1.269-1.225-2.796-1.296-2.78-1.464c-0.003-0.07,0.382-0.17,1.008-0.072c0.621,0.093,1.463,0.442,2.175,1.106
															c0.709,0.667,1.111,1.484,1.245,2.098C308.072,445.942,307.997,446.333,307.927,446.335z"/>
													</g>
												</g>
											</g>
										</g>
									</g>
								</g>
							</g>
						</g>
					</g>
					<g>
						<g>
							<g>
								<g>
									<g>
										<g>
											<g>
												<g>
													<g>
														<path style="fill:#FFFFFF;" d="M305.055,449.211c-0.156,0.074-0.725-1.01-1.935-1.794
															c-1.193-0.811-2.413-0.913-2.405-1.086c-0.034-0.153,1.366-0.321,2.731,0.595
															C304.82,447.828,305.21,449.183,305.055,449.211z"/>
													</g>
												</g>
											</g>
										</g>
									</g>
								</g>
							</g>
						</g>
					</g>
					<g>
						<g>
							<g>
								<g>
									<g>
										<g>
											<g>
												<g>
													<g>
														<path style="fill:#FFFFFF;" d="M312.667,442.97c-0.157,0.085-1.024-1.587-2.8-2.971
															c-1.754-1.412-3.58-1.873-3.533-2.045c0-0.15,2.014,0.075,3.898,1.584
															C312.133,441.027,312.813,442.935,312.667,442.97z"/>
													</g>
												</g>
											</g>
										</g>
									</g>
								</g>
							</g>
						</g>
					</g>
					<g>
						<g>
							<g>
								<g>
									<g>
										<g>
											<g>
												<g>
													<g>
														<path style="fill:#FFFFFF;" d="M315.518,435.307c-0.115,0.133-1.351-0.891-3.174-1.518
															c-1.815-0.653-3.419-0.63-3.425-0.806c-0.032-0.147,1.669-0.447,3.621,0.251
															C314.497,433.913,315.636,435.212,315.518,435.307z"/>
													</g>
												</g>
											</g>
										</g>
									</g>
								</g>
							</g>
						</g>
					</g>
					<g>
						<g>
							<g>
								<g>
									<g>
										<g>
											<g>
												<g>
													<g>
														<path style="fill:#FFFFFF;" d="M317.859,429.279c-0.124,0.124-1.288-1.164-3.262-1.669
															c-1.963-0.548-3.614-0.012-3.66-0.182c-0.026-0.066,0.353-0.303,1.047-0.464c0.69-0.163,1.704-0.204,2.764,0.078
															c1.059,0.285,1.917,0.826,2.434,1.312C317.704,428.841,317.914,429.234,317.859,429.279z"/>
													</g>
												</g>
											</g>
										</g>
									</g>
								</g>
							</g>
						</g>
					</g>
				</g>
			</g>
			<path style="fill:#FF725E;" d="M417.579,227.08c-5.313-5.165-6.733-26.386-4.492-33.351c6.671-13.38,3.991-31.695,0.971-50.189
				c-3.393-1.302-19.564-4.884-19.564-4.884s-4.243,6.39-10.264,6.24c-9.784-0.244-13.965-8.827-13.965-8.827
				s-16.425,2.003-22.594,4.9l-4.727,35.348c0,0,8.281,53.359,11.874,57.914c3.593,4.555,30.325,14.81,43.499,10.689
				C411.49,240.799,421.464,230.857,417.579,227.08z"/>
			<path style="fill:#455A64;" d="M411.362,141.586c0,0,7.635,1.675,10.134,11.503c2.899,11.4,2.033,20.766,0.171,28.386
				c-2.382,9.749-9.408,26.923-9.408,26.923s-1.007-8.189,1.198-15.078c2.204-6.889,4.313-15.889,4.092-22.559
				c-0.221-6.67-0.914-16.258-4.568-21.716c-3.655-5.459-8.264-8.089-8.264-8.089S409.35,140.311,411.362,141.586z"/>
			<g>
				<g>
					<g>
						<g>
							<path style="fill:#AE7461;" d="M389.047,149.045c-0.19-1.15-2.169-6.536-2.624-9.011c-0.642-3.492-7.063-11.684-7.063-11.684
								s0.068-3.199,3.569-1.087c4.145,2.501,5.898,6.042,7.09,5.52c1.192-0.522,8.994-6.661,10.847-6.198
								c1.853,0.463,2.018,2.446,1.255,3.136c-0.763,0.689-1.673,1.873-1.673,1.873s4.138-0.688,2.804,3.575
								c0,0,4.901-2.249,3.691,3.67c0,0,1.892,1.234,0.865,3.206c-0.853,1.637-2.988,4.513-4.197,6.045
								c-1.209,1.532-3.348,7.081-3.348,7.081l-2.128,9.317l-13.001-4.458L389.047,149.045z"/>
						</g>
					</g>
					<g>
						<g>
							<path style="fill:#6F4439;" d="M400.42,131.703c0.035,0.059-0.959,0.71-2.156,1.549c-1.2,0.837-2.152,1.548-2.195,1.494
								c-0.041-0.05,0.848-0.849,2.056-1.693C399.331,132.208,400.387,131.647,400.42,131.703z"/>
						</g>
					</g>
					<g>
						<g>
							<path style="fill:#6F4439;" d="M403.607,134.972c0.054,0.031-0.396,0.846-1.205,1.647c-0.805,0.806-1.621,1.253-1.652,1.199
								c-0.039-0.06,0.698-0.586,1.481-1.371C403.018,135.668,403.547,134.933,403.607,134.972z"/>
						</g>
					</g>
					<g>
						<g>
							<path style="fill:#6F4439;" d="M406.91,138.613c0.049,0.046-0.403,0.607-1.008,1.254c-0.606,0.647-1.136,1.134-1.185,1.088
								c-0.049-0.046,0.403-0.607,1.008-1.254C406.331,139.055,406.861,138.568,406.91,138.613z"/>
						</g>
					</g>
				</g>
			</g>
			<g>
				<g>
					<g>
						<g>
							<g>
								<path style="fill:#6F4439;" d="M445.714,196.653c-0.037,0.152-2.66-0.581-5.972-0.549c-3.314,0.002-5.928,0.762-5.967,0.61
									c-0.018-0.059,0.613-0.326,1.685-0.592c1.07-0.268,2.589-0.505,4.28-0.516c1.69-0.007,3.211,0.215,4.284,0.472
									C445.098,196.333,445.731,196.594,445.714,196.653z"/>
							</g>
						</g>
					</g>
				</g>
				<g>
					<g>
						<path style="fill:#AE7461;" d="M419.482,219.566c-3.094-0.735-11.529-9.786-14.425-11.594c-2.896-1.807-8.368,0-8.368,0
							c0.161,3.464,2.414,1.808,4.345,2.109c1.931,0.301,4.506,2.259,4.506,2.259l-3.701,0.452l-7.241,3.314
							c0,0,0,1.958,2.092,3.313s7.724-0.706,7.724-0.706l3.218,1.008l-3.379,0.602c0,0-4.506,0.753-5.632,1.807
							c-1.126,1.054-0.161,2.109-0.161,2.109l6.759-1.657l4.023,0.753c0,0,6.513,5.896,9.816,6.777
							c3.303,0.881,7.401-2.963,7.401-2.963L419.482,219.566z"/>
					</g>
					<g>
						<g>
							<g>
								<path style="fill:#6F4439;" d="M409.711,216.132c-0.004,0.068-0.861,0.006-2.15-0.391c-0.645-0.178-1.405-0.425-2.255-0.483
									c-0.837-0.044-1.805,0.134-2.779,0.367c-1.96,0.503-3.677,1.205-4.925,1.686c-1.247,0.49-2.027,0.783-2.055,0.72
									c-0.026-0.058,0.703-0.459,1.922-1.03c1.22-0.562,2.93-1.322,4.943-1.839c1.011-0.239,1.99-0.414,2.928-0.342
									c0.925,0.09,1.69,0.382,2.323,0.6C408.919,215.896,409.716,216.068,409.711,216.132z"/>
							</g>
						</g>
					</g>
				</g>
			</g>
			<g>
				<g>
					<g>
						<path style="fill:#263238;" d="M417.452,165.456c-0.037,0-0.075,0.411-0.111,1.155c-0.04,0.858-0.09,1.908-0.148,3.146
							c-0.133,2.654-0.379,6.318-0.962,10.324c-0.58,4.009-1.419,7.583-2.113,10.145c-0.698,2.562-1.209,4.128-1.128,4.156
							c0.035,0.012,0.199-0.366,0.468-1.062c0.274-0.694,0.623-1.716,1.023-2.989c0.79-2.548,1.695-6.137,2.279-10.173
							c0.587-4.034,0.774-7.724,0.811-10.389c0.019-1.333,0.008-2.412-0.021-3.157C417.521,165.867,417.489,165.456,417.452,165.456
							z"/>
					</g>
				</g>
			</g>
			<path style="fill:#455A64;" d="M347.671,218.039c8.047-22.433,13.605-70.967,5.218-78.823c2.336-1.908,6.915-2.933,9.203-0.967
				c2.287,1.966,3.475,4.901,4.393,7.774c4.334,13.567,4.387,28.333,1.101,42.191c-3.286,13.858-9.824,26.832-18.217,38.338"/>
			<path style="fill:#AE7461;" d="M357.632,163.515l19.442,18.689l11.974-33.159l11.047,6.864c0,0-8.704,41.152-13.429,47.251
				c-4.725,6.099-7.471,6.329-14.08,3.458c-6.609-2.87-27.318-26.699-27.318-26.699L357.632,163.515z"/>
			<path style="fill:#FF725E;" d="M347.504,187.275c0,0-17.062-25.242-10.12-38.007c0,0,4.806-7.12,10.288-8.298
				c0,0,4.28,1.332,7.581,5.681c3.302,4.349,13.844,20.033,13.844,20.033L347.504,187.275z"/>
			<g>
				<g>
					<g>
						<path style="fill:#6F4439;" d="M400.263,155.171c-0.01-0.004,0.021-0.116,0.094-0.329c0.09-0.246,0.203-0.554,0.343-0.937
							c0.314-0.817,0.784-2.014,1.473-3.511c0.356-0.744,0.733-1.576,1.333-2.409c0.607-0.784,1.248-1.647,1.915-2.584
							c0.662-0.939,1.365-1.949,2.005-3.063c0.326-0.554,0.572-1.14,0.453-1.763c-0.101-0.605-0.524-1.184-1.052-1.557l-0.114-0.081
							l0.022-0.141c0.082-0.535,0.18-1.083,0.171-1.64c-0.01-0.546-0.077-1.131-0.399-1.552c-0.299-0.43-0.839-0.643-1.42-0.62
							c-0.574,0.013-1.187,0.164-1.736,0.4l-0.478,0.205l0.152-0.492c0.26-0.842,0.413-1.835-0.063-2.543
							c-0.489-0.695-1.567-0.829-2.473-0.715l-0.609,0.077l0.37-0.476c0.298-0.384,0.606-0.756,0.935-1.125
							c0.165-0.184,0.334-0.365,0.513-0.543l0.268-0.259c0.067-0.065,0.122-0.145,0.173-0.23c0.382-0.751,0.018-1.828-0.787-2.238
							c-0.197-0.092-0.432-0.206-0.635-0.209c-0.185-0.028-0.419,0.033-0.65,0.09c-0.465,0.141-0.928,0.358-1.387,0.586
							c-0.913,0.475-1.807,1.029-2.699,1.6c-1.599,1.031-3.126,2.119-4.655,3.16c-0.397,0.257-0.743,0.518-1.211,0.747
							c-0.311,0.116-0.644,0.051-0.868-0.073c-0.237-0.117-0.43-0.265-0.61-0.417c-0.712-0.613-1.292-1.278-1.919-1.892
							c-1.229-1.243-2.534-2.332-3.932-3.18c-0.681-0.404-1.446-0.759-2.13-0.655c-0.688,0.09-1.027,0.87-1.065,1.55l-0.049-0.146
							c2.104,2.754,3.912,5.372,5.324,7.825c0.692,1.232,1.311,2.417,1.631,3.632c0.251,1.203,0.531,2.269,0.817,3.244
							c0.573,1.904,1.03,3.42,1.357,4.507c0.15,0.524,0.26,0.927,0.317,1.204c0.062,0.276,0.07,0.424,0.061,0.425
							c-0.274-0.833-0.847-2.573-1.993-6.058c-0.304-0.963-0.611-2.063-0.875-3.243c-0.318-1.144-0.943-2.314-1.641-3.522
							c-1.424-2.411-3.251-5.009-5.358-7.731l-0.053-0.068l0.004-0.078c0.024-0.431,0.126-0.834,0.343-1.225
							c0.214-0.388,0.633-0.704,1.094-0.779c0.933-0.131,1.736,0.29,2.465,0.704c1.444,0.866,2.791,1.983,4.039,3.238
							c0.631,0.615,1.232,1.293,1.89,1.855c0.32,0.278,0.711,0.508,0.95,0.41c0.353-0.172,0.75-0.456,1.124-0.702
							c1.516-1.036,3.052-2.132,4.662-3.17c0.9-0.577,1.804-1.136,2.745-1.625c0.476-0.236,0.956-0.462,1.48-0.622
							c0.271-0.065,0.535-0.146,0.869-0.104c0.309,0.024,0.548,0.147,0.808,0.269c1.021,0.54,1.518,1.879,0.989,2.929
							c-0.074,0.128-0.16,0.251-0.271,0.358l-0.263,0.252c-0.169,0.167-0.333,0.342-0.494,0.52
							c-0.319,0.355-0.626,0.724-0.914,1.092l-0.239-0.399c0.543-0.073,1.064-0.053,1.589,0.066c0.515,0.12,1.043,0.392,1.365,0.859
							c0.326,0.466,0.391,1.018,0.394,1.523c-0.031,0.248-0.05,0.5-0.096,0.741l-0.18,0.703l-0.326-0.287
							c0.626-0.264,1.263-0.418,1.932-0.433c0.655-0.03,1.399,0.243,1.788,0.818c0.409,0.562,0.462,1.223,0.472,1.815
							c0.004,0.604-0.102,1.172-0.193,1.729l-0.092-0.221c0.63,0.455,1.093,1.097,1.221,1.846c0.143,0.751-0.189,1.481-0.519,2.023
							c-0.667,1.133-1.384,2.136-2.062,3.072c-0.683,0.932-1.339,1.788-1.962,2.566c-0.578,0.773-0.979,1.603-1.346,2.33
							c-0.718,1.473-1.223,2.655-1.575,3.454c-0.163,0.372-0.295,0.673-0.4,0.913C400.325,155.071,400.273,155.175,400.263,155.171z
							"/>
					</g>
				</g>
			</g>
		</g>
		<g>
			<path style="fill:#263238;" d="M339.905,224.197c-0.017,0.004-0.082-0.195-0.189-0.579c-0.116-0.44-0.263-0.998-0.444-1.686
				c-0.378-1.466-0.885-3.597-1.477-6.239c-1.185-5.282-2.65-12.621-3.927-20.783c-1.273-8.166-2.116-15.603-2.597-20.995
				c-0.242-2.696-0.409-4.88-0.495-6.391c-0.037-0.71-0.068-1.287-0.092-1.741c-0.015-0.398-0.014-0.608,0.004-0.609
				c0.018-0.001,0.052,0.206,0.101,0.601c0.049,0.452,0.112,1.026,0.189,1.732c0.163,1.573,0.387,3.732,0.66,6.372
				c0.575,5.378,1.475,12.796,2.745,20.951c1.276,8.151,2.681,15.49,3.773,20.787c0.544,2.597,0.99,4.722,1.314,6.27
				c0.142,0.697,0.258,1.262,0.348,1.708C339.892,223.985,339.923,224.192,339.905,224.197z"/>
		</g>
		<g>
			<path style="fill:#263238;" d="M343.388,223.663c0.064,0.122-1.038,0.795-2.563,1.2c-1.524,0.411-2.814,0.378-2.82,0.24
				c-0.011-0.149,1.217-0.346,2.685-0.744C342.16,223.971,343.323,223.528,343.388,223.663z"/>
		</g>
		<g>
			<path style="fill:#455A64;" d="M361.175,113.357c-0.027,0.023-0.326-0.302-0.845-0.916c-0.273-0.298-0.559-0.697-0.874-1.175
				c-0.163-0.241-0.335-0.494-0.514-0.759c-0.16-0.287-0.326-0.586-0.5-0.897c-1.409-2.5-2.722-6.393-2.757-10.814
				c-0.109-4.429,1.159-8.332,2.384-10.913c0.651-1.283,1.225-2.297,1.709-2.94c0.46-0.658,0.727-1.01,0.757-0.989
				c0.098,0.064-0.96,1.496-2.131,4.083c-1.122,2.585-2.305,6.416-2.198,10.752c0.035,4.329,1.26,8.147,2.562,10.65
				C360.058,111.966,361.266,113.286,361.175,113.357z"/>
		</g>
		<g>
			<path style="fill:#263238;" d="M425.143,61.857c-0.318,0.093-24.43,4.896-24.43,4.896l-37.148,4.661l-24.942,0.352l-0.102-1.46
				l47.447-8.533l39.102-0.952L425.143,61.857z"/>
			<g>
				<path style="fill:#455A64;" d="M403.612,81.284l-2.899-14.531c0,0-15.527-5.494-38.867,4.686l-3.542,17.834
					c0,0,12.757-9.822,32.556-8.291C390.86,80.982,398.93,77.747,403.612,81.284L403.612,81.284z"/>
				<g>
					<path style="fill:#263238;" d="M390.86,80.982c0.061-0.004,0.056-0.942-0.02-2.456c-0.075-1.513-0.228-3.601-0.438-5.902
						c-0.216-2.226-0.411-4.239-0.57-5.888c-0.157-1.506-0.276-2.436-0.34-2.432c-0.061,0.004-0.056,0.942,0.019,2.456
						c0.075,1.513,0.228,3.602,0.438,5.903c0.215,2.225,0.41,4.238,0.57,5.887C390.677,80.055,390.796,80.986,390.86,80.982z"/>
				</g>
				<polygon style="fill:#455A64;" points="338.623,71.766 386.265,63.305 425.143,61.857 425.07,60.821 385.753,61.677 
					338.522,70.306 				"/>
				<g>
					<path style="fill:#263238;" d="M386.233,63.452c0.125-0.008,0.199-0.412,0.165-0.902c-0.034-0.49-0.163-0.881-0.289-0.872
						c-0.125,0.008-0.199,0.412-0.165,0.902C385.979,63.069,386.108,63.46,386.233,63.452z"/>
				</g>
			</g>
			<path style="fill:#263238;" d="M420.934,71.387l1.331-0.037c1.517,0.55,1.93,1.773,2.168,2.851
				c0.912,4.125,1.517,8.275,1.811,12.43c-1.382,0.089-2.764,0.179-4.147,0.268c-0.331,0.021-0.284-10.326-0.982-0.051
				c-0.024,0.352-2.377,0.276-2.282-0.115c1.15-4.723,1.121-9.122,1.18-13.255C420.025,72.734,420.093,71.91,420.934,71.387z"/>
			<g>
				<path style="fill:#263238;" d="M420.922,69.59c-0.076-1.263-0.232-2.519-0.474-3.762c-0.198-1.015-0.406-2.07-0.919-2.986
					c-0.484-0.863-1.23-1.61-2.245-1.833c-1.262-0.277-2.559,0.274-3.647,0.843c-0.618,0.323-1.17-0.592-0.551-0.915
					c1.272-0.665,2.699-1.217,4.17-1.006c1.241,0.179,2.249,0.943,2.939,1.934c0.703,1.009,1.002,2.203,1.246,3.381
					c0.296,1.431,0.485,2.887,0.573,4.344C422.055,70.272,420.964,70.269,420.922,69.59L420.922,69.59z"/>
			</g>
			<g>
				<path style="fill:#263238;" d="M419.416,70.391c0.07,1.003,0.996,1.759,2.069,1.689c1.073-0.071,1.886-0.941,1.816-1.944
					c-0.07-1.003-0.996-1.76-2.069-1.689C420.159,68.518,419.346,69.388,419.416,70.391z"/>
			</g>
			<g>
				<path style="fill:#455A64;" d="M424.633,83.716c0.057,0.001,0.125-0.683,0.073-1.787c-0.049-1.103-0.218-2.619-0.516-4.276
					c-0.305-1.656-0.677-3.139-1.051-4.187c-0.193-0.522-0.366-0.941-0.544-1.209c-0.158-0.276-0.332-0.381-0.339-0.363
					c-0.031,0.033,0.079,0.156,0.181,0.441c0.121,0.274,0.245,0.7,0.395,1.222c0.289,1.051,0.607,2.531,0.91,4.173
					c0.295,1.643,0.513,3.139,0.643,4.224C424.518,83.04,424.565,83.716,424.633,83.716z"/>
			</g>
			<g>
				<path style="fill:#455A64;" d="M422.511,80.938c0.12,0.004,0.27-2.023,0.081-4.515c-0.183-2.494-0.631-4.478-0.75-4.457
					c-0.129,0.02,0.115,2.019,0.296,4.489C422.326,78.923,422.38,80.935,422.511,80.938z"/>
			</g>
			<g>
				<path style="fill:#455A64;" d="M421.079,74.52c0.126,0.002,0.237-0.545,0.249-1.222c0.012-0.677-0.08-1.228-0.205-1.23
					c-0.125-0.002-0.237,0.545-0.249,1.222C420.862,73.967,420.954,74.518,421.079,74.52z"/>
			</g>
			<polygon style="fill:#455A64;" points="415.308,61.074 412.2,61.128 412.2,62.135 415.559,61.863 			"/>
		</g>
	</g>
</g>
</svg>
